<?xml version="1.0" encoding="utf-8" standalone="no"?>
<!DOCTYPE svg PUBLIC "-//W3C//DTD SVG 1.1//EN"
  "http://www.w3.org/Graphics/SVG/1.1/DTD/svg11.dtd">
<svg xmlns:xlink="http://www.w3.org/1999/xlink" width="648pt" height="504pt" viewBox="0 0 648 504" xmlns="http://www.w3.org/2000/svg" version="1.1">
 <metadata>
  <rdf:RDF xmlns:dc="http://purl.org/dc/elements/1.1/" xmlns:cc="http://creativecommons.org/ns#" xmlns:rdf="http://www.w3.org/1999/02/22-rdf-syntax-ns#">
   <cc:Work>
    <dc:type rdf:resource="http://purl.org/dc/dcmitype/StillImage"/>
    <dc:date>2026-01-18T13:13:26.062924</dc:date>
    <dc:format>image/svg+xml</dc:format>
    <dc:creator>
     <cc:Agent>
      <dc:title>Matplotlib v3.10.8, https://matplotlib.org/</dc:title>
     </cc:Agent>
    </dc:creator>
   </cc:Work>
  </rdf:RDF>
 </metadata>
 <defs>
  <style type="text/css">*{stroke-linejoin: round; stroke-linecap: butt}</style>
 </defs>
 <g id="figure_1">
  <g id="patch_1">
   <path d="M 0 504 
L 648 504 
L 648 0 
L 0 0 
z
" style="fill: #ffffff"/>
  </g>
  <g id="axes_1">
   <g id="patch_2">
    <path d="M 56.312054 221.272 
L 628.183658 221.272 
L 628.183658 41.856 
L 56.312054 41.856 
z
" style="fill: #ffffff"/>
   </g>
   <g id="matplotlib.axis_1">
    <g id="xtick_1">
     <g id="line2d_1">
      <path d="M 82.306218 221.272 
L 82.306218 41.856 
" clip-path="url(#p63747da4f8)" style="fill: none; stroke: #b0b0b0; stroke-opacity: 0.25; stroke-width: 0.8; stroke-linecap: square"/>
     </g>
     <g id="line2d_2">
      <defs>
       <path id="m2ee055a958" d="M 0 0 
L 0 3.5 
" style="stroke: #000000; stroke-width: 0.8"/>
      </defs>
      <g>
       <use xlink:href="#m2ee055a958" x="82.306218" y="221.272" style="stroke: #000000; stroke-width: 0.8"/>
      </g>
     </g>
     <g id="text_1">
      <!-- 0 -->
      <g transform="translate(79.124968 235.870437) scale(0.1 -0.1)">
       <defs>
        <path id="DejaVuSans-30" d="M 2034 4250 
Q 1547 4250 1301 3770 
Q 1056 3291 1056 2328 
Q 1056 1369 1301 889 
Q 1547 409 2034 409 
Q 2525 409 2770 889 
Q 3016 1369 3016 2328 
Q 3016 3291 2770 3770 
Q 2525 4250 2034 4250 
z
M 2034 4750 
Q 2819 4750 3233 4129 
Q 3647 3509 3647 2328 
Q 3647 1150 3233 529 
Q 2819 -91 2034 -91 
Q 1250 -91 836 529 
Q 422 1150 422 2328 
Q 422 3509 836 4129 
Q 1250 4750 2034 4750 
z
" transform="scale(0.015625)"/>
       </defs>
       <use xlink:href="#DejaVuSans-30"/>
      </g>
     </g>
    </g>
    <g id="xtick_2">
     <g id="line2d_3">
      <path d="M 186.282873 221.272 
L 186.282873 41.856 
" clip-path="url(#p63747da4f8)" style="fill: none; stroke: #b0b0b0; stroke-opacity: 0.25; stroke-width: 0.8; stroke-linecap: square"/>
     </g>
     <g id="line2d_4">
      <g>
       <use xlink:href="#m2ee055a958" x="186.282873" y="221.272" style="stroke: #000000; stroke-width: 0.8"/>
      </g>
     </g>
     <g id="text_2">
      <!-- 2 -->
      <g transform="translate(183.101623 235.870437) scale(0.1 -0.1)">
       <defs>
        <path id="DejaVuSans-32" d="M 1228 531 
L 3431 531 
L 3431 0 
L 469 0 
L 469 531 
Q 828 903 1448 1529 
Q 2069 2156 2228 2338 
Q 2531 2678 2651 2914 
Q 2772 3150 2772 3378 
Q 2772 3750 2511 3984 
Q 2250 4219 1831 4219 
Q 1534 4219 1204 4116 
Q 875 4013 500 3803 
L 500 4441 
Q 881 4594 1212 4672 
Q 1544 4750 1819 4750 
Q 2544 4750 2975 4387 
Q 3406 4025 3406 3419 
Q 3406 3131 3298 2873 
Q 3191 2616 2906 2266 
Q 2828 2175 2409 1742 
Q 1991 1309 1228 531 
z
" transform="scale(0.015625)"/>
       </defs>
       <use xlink:href="#DejaVuSans-32"/>
      </g>
     </g>
    </g>
    <g id="xtick_3">
     <g id="line2d_5">
      <path d="M 290.259528 221.272 
L 290.259528 41.856 
" clip-path="url(#p63747da4f8)" style="fill: none; stroke: #b0b0b0; stroke-opacity: 0.25; stroke-width: 0.8; stroke-linecap: square"/>
     </g>
     <g id="line2d_6">
      <g>
       <use xlink:href="#m2ee055a958" x="290.259528" y="221.272" style="stroke: #000000; stroke-width: 0.8"/>
      </g>
     </g>
     <g id="text_3">
      <!-- 4 -->
      <g transform="translate(287.078278 235.870437) scale(0.1 -0.1)">
       <defs>
        <path id="DejaVuSans-34" d="M 2419 4116 
L 825 1625 
L 2419 1625 
L 2419 4116 
z
M 2253 4666 
L 3047 4666 
L 3047 1625 
L 3713 1625 
L 3713 1100 
L 3047 1100 
L 3047 0 
L 2419 0 
L 2419 1100 
L 313 1100 
L 313 1709 
L 2253 4666 
z
" transform="scale(0.015625)"/>
       </defs>
       <use xlink:href="#DejaVuSans-34"/>
      </g>
     </g>
    </g>
    <g id="xtick_4">
     <g id="line2d_7">
      <path d="M 394.236183 221.272 
L 394.236183 41.856 
" clip-path="url(#p63747da4f8)" style="fill: none; stroke: #b0b0b0; stroke-opacity: 0.25; stroke-width: 0.8; stroke-linecap: square"/>
     </g>
     <g id="line2d_8">
      <g>
       <use xlink:href="#m2ee055a958" x="394.236183" y="221.272" style="stroke: #000000; stroke-width: 0.8"/>
      </g>
     </g>
     <g id="text_4">
      <!-- 6 -->
      <g transform="translate(391.054933 235.870437) scale(0.1 -0.1)">
       <defs>
        <path id="DejaVuSans-36" d="M 2113 2584 
Q 1688 2584 1439 2293 
Q 1191 2003 1191 1497 
Q 1191 994 1439 701 
Q 1688 409 2113 409 
Q 2538 409 2786 701 
Q 3034 994 3034 1497 
Q 3034 2003 2786 2293 
Q 2538 2584 2113 2584 
z
M 3366 4563 
L 3366 3988 
Q 3128 4100 2886 4159 
Q 2644 4219 2406 4219 
Q 1781 4219 1451 3797 
Q 1122 3375 1075 2522 
Q 1259 2794 1537 2939 
Q 1816 3084 2150 3084 
Q 2853 3084 3261 2657 
Q 3669 2231 3669 1497 
Q 3669 778 3244 343 
Q 2819 -91 2113 -91 
Q 1303 -91 875 529 
Q 447 1150 447 2328 
Q 447 3434 972 4092 
Q 1497 4750 2381 4750 
Q 2619 4750 2861 4703 
Q 3103 4656 3366 4563 
z
" transform="scale(0.015625)"/>
       </defs>
       <use xlink:href="#DejaVuSans-36"/>
      </g>
     </g>
    </g>
    <g id="xtick_5">
     <g id="line2d_9">
      <path d="M 498.212839 221.272 
L 498.212839 41.856 
" clip-path="url(#p63747da4f8)" style="fill: none; stroke: #b0b0b0; stroke-opacity: 0.25; stroke-width: 0.8; stroke-linecap: square"/>
     </g>
     <g id="line2d_10">
      <g>
       <use xlink:href="#m2ee055a958" x="498.212839" y="221.272" style="stroke: #000000; stroke-width: 0.8"/>
      </g>
     </g>
     <g id="text_5">
      <!-- 8 -->
      <g transform="translate(495.031589 235.870437) scale(0.1 -0.1)">
       <defs>
        <path id="DejaVuSans-38" d="M 2034 2216 
Q 1584 2216 1326 1975 
Q 1069 1734 1069 1313 
Q 1069 891 1326 650 
Q 1584 409 2034 409 
Q 2484 409 2743 651 
Q 3003 894 3003 1313 
Q 3003 1734 2745 1975 
Q 2488 2216 2034 2216 
z
M 1403 2484 
Q 997 2584 770 2862 
Q 544 3141 544 3541 
Q 544 4100 942 4425 
Q 1341 4750 2034 4750 
Q 2731 4750 3128 4425 
Q 3525 4100 3525 3541 
Q 3525 3141 3298 2862 
Q 3072 2584 2669 2484 
Q 3125 2378 3379 2068 
Q 3634 1759 3634 1313 
Q 3634 634 3220 271 
Q 2806 -91 2034 -91 
Q 1263 -91 848 271 
Q 434 634 434 1313 
Q 434 1759 690 2068 
Q 947 2378 1403 2484 
z
M 1172 3481 
Q 1172 3119 1398 2916 
Q 1625 2713 2034 2713 
Q 2441 2713 2670 2916 
Q 2900 3119 2900 3481 
Q 2900 3844 2670 4047 
Q 2441 4250 2034 4250 
Q 1625 4250 1398 4047 
Q 1172 3844 1172 3481 
z
" transform="scale(0.015625)"/>
       </defs>
       <use xlink:href="#DejaVuSans-38"/>
      </g>
     </g>
    </g>
    <g id="xtick_6">
     <g id="line2d_11">
      <path d="M 602.189494 221.272 
L 602.189494 41.856 
" clip-path="url(#p63747da4f8)" style="fill: none; stroke: #b0b0b0; stroke-opacity: 0.25; stroke-width: 0.8; stroke-linecap: square"/>
     </g>
     <g id="line2d_12">
      <g>
       <use xlink:href="#m2ee055a958" x="602.189494" y="221.272" style="stroke: #000000; stroke-width: 0.8"/>
      </g>
     </g>
     <g id="text_6">
      <!-- 10 -->
      <g transform="translate(595.826994 235.870437) scale(0.1 -0.1)">
       <defs>
        <path id="DejaVuSans-31" d="M 794 531 
L 1825 531 
L 1825 4091 
L 703 3866 
L 703 4441 
L 1819 4666 
L 2450 4666 
L 2450 531 
L 3481 531 
L 3481 0 
L 794 0 
L 794 531 
z
" transform="scale(0.015625)"/>
       </defs>
       <use xlink:href="#DejaVuSans-31"/>
       <use xlink:href="#DejaVuSans-30" transform="translate(63.623047 0)"/>
      </g>
     </g>
    </g>
    <g id="text_7">
     <!-- t [arb.] -->
     <g transform="translate(324.914262 249.548563) scale(0.1 -0.1)">
      <defs>
       <path id="DejaVuSans-74" d="M 1172 4494 
L 1172 3500 
L 2356 3500 
L 2356 3053 
L 1172 3053 
L 1172 1153 
Q 1172 725 1289 603 
Q 1406 481 1766 481 
L 2356 481 
L 2356 0 
L 1766 0 
Q 1100 0 847 248 
Q 594 497 594 1153 
L 594 3053 
L 172 3053 
L 172 3500 
L 594 3500 
L 594 4494 
L 1172 4494 
z
" transform="scale(0.015625)"/>
       <path id="DejaVuSans-20" transform="scale(0.015625)"/>
       <path id="DejaVuSans-5b" d="M 550 4863 
L 1875 4863 
L 1875 4416 
L 1125 4416 
L 1125 -397 
L 1875 -397 
L 1875 -844 
L 550 -844 
L 550 4863 
z
" transform="scale(0.015625)"/>
       <path id="DejaVuSans-61" d="M 2194 1759 
Q 1497 1759 1228 1600 
Q 959 1441 959 1056 
Q 959 750 1161 570 
Q 1363 391 1709 391 
Q 2188 391 2477 730 
Q 2766 1069 2766 1631 
L 2766 1759 
L 2194 1759 
z
M 3341 1997 
L 3341 0 
L 2766 0 
L 2766 531 
Q 2569 213 2275 61 
Q 1981 -91 1556 -91 
Q 1019 -91 701 211 
Q 384 513 384 1019 
Q 384 1609 779 1909 
Q 1175 2209 1959 2209 
L 2766 2209 
L 2766 2266 
Q 2766 2663 2505 2880 
Q 2244 3097 1772 3097 
Q 1472 3097 1187 3025 
Q 903 2953 641 2809 
L 641 3341 
Q 956 3463 1253 3523 
Q 1550 3584 1831 3584 
Q 2591 3584 2966 3190 
Q 3341 2797 3341 1997 
z
" transform="scale(0.015625)"/>
       <path id="DejaVuSans-72" d="M 2631 2963 
Q 2534 3019 2420 3045 
Q 2306 3072 2169 3072 
Q 1681 3072 1420 2755 
Q 1159 2438 1159 1844 
L 1159 0 
L 581 0 
L 581 3500 
L 1159 3500 
L 1159 2956 
Q 1341 3275 1631 3429 
Q 1922 3584 2338 3584 
Q 2397 3584 2469 3576 
Q 2541 3569 2628 3553 
L 2631 2963 
z
" transform="scale(0.015625)"/>
       <path id="DejaVuSans-62" d="M 3116 1747 
Q 3116 2381 2855 2742 
Q 2594 3103 2138 3103 
Q 1681 3103 1420 2742 
Q 1159 2381 1159 1747 
Q 1159 1113 1420 752 
Q 1681 391 2138 391 
Q 2594 391 2855 752 
Q 3116 1113 3116 1747 
z
M 1159 2969 
Q 1341 3281 1617 3432 
Q 1894 3584 2278 3584 
Q 2916 3584 3314 3078 
Q 3713 2572 3713 1747 
Q 3713 922 3314 415 
Q 2916 -91 2278 -91 
Q 1894 -91 1617 61 
Q 1341 213 1159 525 
L 1159 0 
L 581 0 
L 581 4863 
L 1159 4863 
L 1159 2969 
z
" transform="scale(0.015625)"/>
       <path id="DejaVuSans-2e" d="M 684 794 
L 1344 794 
L 1344 0 
L 684 0 
L 684 794 
z
" transform="scale(0.015625)"/>
       <path id="DejaVuSans-5d" d="M 1947 4863 
L 1947 -844 
L 622 -844 
L 622 -397 
L 1369 -397 
L 1369 4416 
L 622 4416 
L 622 4863 
L 1947 4863 
z
" transform="scale(0.015625)"/>
      </defs>
      <use xlink:href="#DejaVuSans-74"/>
      <use xlink:href="#DejaVuSans-20" transform="translate(39.208984 0)"/>
      <use xlink:href="#DejaVuSans-5b" transform="translate(70.996094 0)"/>
      <use xlink:href="#DejaVuSans-61" transform="translate(110.009766 0)"/>
      <use xlink:href="#DejaVuSans-72" transform="translate(171.289062 0)"/>
      <use xlink:href="#DejaVuSans-62" transform="translate(212.402344 0)"/>
      <use xlink:href="#DejaVuSans-2e" transform="translate(275.878906 0)"/>
      <use xlink:href="#DejaVuSans-5d" transform="translate(307.666016 0)"/>
     </g>
    </g>
   </g>
   <g id="matplotlib.axis_2">
    <g id="ytick_1">
     <g id="line2d_13">
      <path d="M 56.312054 191.910258 
L 628.183658 191.910258 
" clip-path="url(#p63747da4f8)" style="fill: none; stroke: #b0b0b0; stroke-opacity: 0.25; stroke-width: 0.8; stroke-linecap: square"/>
     </g>
     <g id="line2d_14">
      <defs>
       <path id="m8493fd6760" d="M 0 0 
L -3.5 0 
" style="stroke: #000000; stroke-width: 0.8"/>
      </defs>
      <g>
       <use xlink:href="#m8493fd6760" x="56.312054" y="191.910258" style="stroke: #000000; stroke-width: 0.8"/>
      </g>
     </g>
     <g id="text_8">
      <!-- −1.0 -->
      <g transform="translate(25.029241 195.709477) scale(0.1 -0.1)">
       <defs>
        <path id="DejaVuSans-2212" d="M 678 2272 
L 4684 2272 
L 4684 1741 
L 678 1741 
L 678 2272 
z
" transform="scale(0.015625)"/>
       </defs>
       <use xlink:href="#DejaVuSans-2212"/>
       <use xlink:href="#DejaVuSans-31" transform="translate(83.789062 0)"/>
       <use xlink:href="#DejaVuSans-2e" transform="translate(147.412109 0)"/>
       <use xlink:href="#DejaVuSans-30" transform="translate(179.199219 0)"/>
      </g>
     </g>
    </g>
    <g id="ytick_2">
     <g id="line2d_15">
      <path d="M 56.312054 161.737126 
L 628.183658 161.737126 
" clip-path="url(#p63747da4f8)" style="fill: none; stroke: #b0b0b0; stroke-opacity: 0.25; stroke-width: 0.8; stroke-linecap: square"/>
     </g>
     <g id="line2d_16">
      <g>
       <use xlink:href="#m8493fd6760" x="56.312054" y="161.737126" style="stroke: #000000; stroke-width: 0.8"/>
      </g>
     </g>
     <g id="text_9">
      <!-- −0.5 -->
      <g transform="translate(25.029241 165.536345) scale(0.1 -0.1)">
       <defs>
        <path id="DejaVuSans-35" d="M 691 4666 
L 3169 4666 
L 3169 4134 
L 1269 4134 
L 1269 2991 
Q 1406 3038 1543 3061 
Q 1681 3084 1819 3084 
Q 2600 3084 3056 2656 
Q 3513 2228 3513 1497 
Q 3513 744 3044 326 
Q 2575 -91 1722 -91 
Q 1428 -91 1123 -41 
Q 819 9 494 109 
L 494 744 
Q 775 591 1075 516 
Q 1375 441 1709 441 
Q 2250 441 2565 725 
Q 2881 1009 2881 1497 
Q 2881 1984 2565 2268 
Q 2250 2553 1709 2553 
Q 1456 2553 1204 2497 
Q 953 2441 691 2322 
L 691 4666 
z
" transform="scale(0.015625)"/>
       </defs>
       <use xlink:href="#DejaVuSans-2212"/>
       <use xlink:href="#DejaVuSans-30" transform="translate(83.789062 0)"/>
       <use xlink:href="#DejaVuSans-2e" transform="translate(147.412109 0)"/>
       <use xlink:href="#DejaVuSans-35" transform="translate(179.199219 0)"/>
      </g>
     </g>
    </g>
    <g id="ytick_3">
     <g id="line2d_17">
      <path d="M 56.312054 131.563995 
L 628.183658 131.563995 
" clip-path="url(#p63747da4f8)" style="fill: none; stroke: #b0b0b0; stroke-opacity: 0.25; stroke-width: 0.8; stroke-linecap: square"/>
     </g>
     <g id="line2d_18">
      <g>
       <use xlink:href="#m8493fd6760" x="56.312054" y="131.563995" style="stroke: #000000; stroke-width: 0.8"/>
      </g>
     </g>
     <g id="text_10">
      <!-- 0.0 -->
      <g transform="translate(33.408929 135.363213) scale(0.1 -0.1)">
       <use xlink:href="#DejaVuSans-30"/>
       <use xlink:href="#DejaVuSans-2e" transform="translate(63.623047 0)"/>
       <use xlink:href="#DejaVuSans-30" transform="translate(95.410156 0)"/>
      </g>
     </g>
    </g>
    <g id="ytick_4">
     <g id="line2d_19">
      <path d="M 56.312054 101.390863 
L 628.183658 101.390863 
" clip-path="url(#p63747da4f8)" style="fill: none; stroke: #b0b0b0; stroke-opacity: 0.25; stroke-width: 0.8; stroke-linecap: square"/>
     </g>
     <g id="line2d_20">
      <g>
       <use xlink:href="#m8493fd6760" x="56.312054" y="101.390863" style="stroke: #000000; stroke-width: 0.8"/>
      </g>
     </g>
     <g id="text_11">
      <!-- 0.5 -->
      <g transform="translate(33.408929 105.190082) scale(0.1 -0.1)">
       <use xlink:href="#DejaVuSans-30"/>
       <use xlink:href="#DejaVuSans-2e" transform="translate(63.623047 0)"/>
       <use xlink:href="#DejaVuSans-35" transform="translate(95.410156 0)"/>
      </g>
     </g>
    </g>
    <g id="ytick_5">
     <g id="line2d_21">
      <path d="M 56.312054 71.217731 
L 628.183658 71.217731 
" clip-path="url(#p63747da4f8)" style="fill: none; stroke: #b0b0b0; stroke-opacity: 0.25; stroke-width: 0.8; stroke-linecap: square"/>
     </g>
     <g id="line2d_22">
      <g>
       <use xlink:href="#m8493fd6760" x="56.312054" y="71.217731" style="stroke: #000000; stroke-width: 0.8"/>
      </g>
     </g>
     <g id="text_12">
      <!-- 1.0 -->
      <g transform="translate(33.408929 75.01695) scale(0.1 -0.1)">
       <use xlink:href="#DejaVuSans-31"/>
       <use xlink:href="#DejaVuSans-2e" transform="translate(63.623047 0)"/>
       <use xlink:href="#DejaVuSans-30" transform="translate(95.410156 0)"/>
      </g>
     </g>
    </g>
    <g id="text_13">
     <!-- [arb.] -->
     <g transform="translate(18.949554 145.348375) rotate(-90) scale(0.1 -0.1)">
      <use xlink:href="#DejaVuSans-5b"/>
      <use xlink:href="#DejaVuSans-61" transform="translate(39.013672 0)"/>
      <use xlink:href="#DejaVuSans-72" transform="translate(100.292969 0)"/>
      <use xlink:href="#DejaVuSans-62" transform="translate(141.40625 0)"/>
      <use xlink:href="#DejaVuSans-2e" transform="translate(204.882812 0)"/>
      <use xlink:href="#DejaVuSans-5d" transform="translate(236.669922 0)"/>
     </g>
    </g>
   </g>
   <g id="line2d_23">
    <path d="M 82.306218 131.563995 
L 85.353153 95.697909 
L 87.003576 78.90033 
L 88.273132 68.101611 
L 89.288777 61.086676 
L 90.177466 56.27344 
L 90.9392 53.200733 
L 91.573978 51.413796 
L 92.081801 50.502669 
L 92.462668 50.125399 
L 92.843534 50.011914 
L 93.224401 50.162584 
L 93.605268 50.57692 
L 94.113091 51.537072 
L 94.747869 53.384259 
L 95.382647 55.934527 
L 96.144381 59.89019 
L 97.03307 65.673593 
L 98.175671 74.798106 
L 99.445227 86.859903 
L 101.09565 104.866852 
L 103.888674 138.398984 
L 106.427786 168.015957 
L 108.078209 184.725042 
L 109.347765 195.434851 
L 110.36341 202.367932 
L 111.2521 207.103315 
L 112.013833 210.105749 
L 112.648612 211.83232 
L 113.156434 212.694363 
L 113.537301 213.034545 
L 113.918168 213.110836 
L 114.299035 212.922991 
L 114.679902 212.471617 
L 115.187724 211.462501 
L 115.822502 209.555182 
L 116.584236 206.342526 
L 117.472925 201.374516 
L 118.48857 194.197228 
L 119.631171 184.41073 
L 121.027683 170.394209 
L 122.932017 148.69626 
L 128.137198 87.812445 
L 129.533709 74.501898 
L 130.67631 65.430741 
L 131.691955 58.9755 
L 132.580644 54.69229 
L 133.342378 52.096425 
L 133.977156 50.718046 
L 134.484979 50.138448 
L 134.865846 50.011306 
L 135.246712 50.148319 
L 135.627579 50.549045 
L 136.135402 51.491198 
L 136.77018 53.316271 
L 137.404958 55.845036 
L 138.166692 59.775973 
L 139.055381 65.53242 
L 140.071026 73.528518 
L 141.340582 85.37582 
L 142.991005 103.184478 
L 145.530118 133.524725 
L 148.450097 167.80105 
L 150.10052 184.542762 
L 151.370077 195.285305 
L 152.385722 202.248501 
L 153.274411 207.012513 
L 154.036145 210.040779 
L 154.670923 211.789534 
L 155.178745 212.669611 
L 155.559612 213.023417 
L 155.940479 213.113369 
L 156.321346 212.939176 
L 156.702213 212.501402 
L 157.210035 211.510262 
L 157.844813 209.625013 
L 158.606547 206.437996 
L 159.495236 201.498314 
L 160.510881 194.350703 
L 161.653482 184.593342 
L 163.049994 170.605146 
L 164.954328 148.930893 
L 170.159509 88.015227 
L 171.556021 74.673657 
L 172.698621 65.571501 
L 173.714266 59.085236 
L 174.602956 54.772785 
L 175.364689 52.150708 
L 175.999467 50.749933 
L 176.50729 50.152203 
L 176.888157 50.011404 
L 177.269024 50.13476 
L 177.649891 50.521872 
L 178.157713 51.446018 
L 178.792491 53.24896 
L 179.427269 55.7562 
L 180.189003 59.662378 
L 181.077692 65.391819 
L 182.093337 73.360112 
L 183.362894 85.178169 
L 184.886361 101.515735 
L 187.298518 130.190226 
L 190.472408 167.58583 
L 192.122832 184.360022 
L 193.392388 195.135207 
L 194.408033 202.128458 
L 195.296722 206.921057 
L 196.058456 209.975129 
L 196.693234 211.746053 
L 197.201057 212.644156 
L 197.581923 213.011583 
L 197.96279 213.115195 
L 198.343657 212.954656 
L 198.724524 212.530486 
L 199.232346 211.55733 
L 199.867125 209.694168 
L 200.501903 207.128372 
L 201.263636 203.15486 
L 202.152326 197.352005 
L 203.294926 188.205178 
L 204.564483 176.122866 
L 206.214906 158.097127 
L 209.007929 124.556121 
L 211.547042 94.956902 
L 213.197465 78.271488 
L 214.467021 67.585396 
L 215.482666 60.674119 
L 216.371356 55.959454 
L 217.133089 52.975706 
L 217.767867 51.265178 
L 218.27569 50.416174 
L 218.656557 50.085841 
L 219.037424 50.019424 
L 219.418291 50.217136 
L 219.799157 50.678337 
L 220.30698 51.700439 
L 220.941758 53.6237 
L 221.703492 56.85487 
L 222.592181 61.843327 
L 223.607826 69.042026 
L 224.750427 78.849531 
L 226.146939 92.886449 
L 228.051273 114.601407 
L 233.256453 175.461873 
L 234.652965 188.749925 
L 235.795566 197.798628 
L 236.811211 204.231412 
L 237.6999 208.493464 
L 238.461634 211.07037 
L 239.096412 212.432555 
L 239.604235 212.999044 
L 239.985101 213.116314 
L 240.365968 212.969431 
L 240.746835 212.558868 
L 241.254658 211.603705 
L 241.889436 209.762647 
L 242.524214 207.218338 
L 243.285948 203.269526 
L 244.174637 197.493591 
L 245.317238 188.377649 
L 246.586794 176.323736 
L 248.237217 158.324015 
L 251.030241 124.795328 
L 253.696309 93.793478 
L 255.219776 78.453435 
L 256.489332 67.734542 
L 257.504977 60.793106 
L 258.393667 56.049782 
L 259.155401 53.040184 
L 259.790179 51.307461 
L 260.298001 50.440418 
L 260.678868 50.096459 
L 261.059735 50.01638 
L 261.440602 50.200441 
L 261.821469 50.648045 
L 262.329291 51.652178 
L 262.964069 53.55338 
L 263.725803 56.758931 
L 264.614492 61.719092 
L 265.630137 68.888159 
L 266.772738 78.666588 
L 268.16925 92.675268 
L 270.073584 114.366666 
L 275.278765 175.259364 
L 276.675276 188.578524 
L 277.817877 197.658282 
L 278.833522 204.12213 
L 279.722211 208.41345 
L 280.483945 211.016584 
L 281.118723 212.401174 
L 281.626546 212.985799 
L 282.007413 213.116727 
L 282.38828 212.9835 
L 282.769146 212.586548 
L 283.276969 211.649386 
L 283.911747 209.830447 
L 284.546525 207.307648 
L 285.308259 203.383571 
L 286.196948 197.634606 
L 287.212593 189.646209 
L 288.482149 177.807005 
L 290.132573 160.005896 
L 292.671685 129.6698 
L 295.591664 95.386574 
L 297.242087 78.635843 
L 298.511644 67.884241 
L 299.527289 60.912707 
L 300.415978 56.140766 
L 301.177712 53.105343 
L 301.81249 51.35044 
L 302.320312 50.465365 
L 302.701179 50.107783 
L 303.082046 50.014043 
L 303.462913 50.184451 
L 303.84378 50.618454 
L 304.351602 51.604609 
L 304.98638 53.483736 
L 305.748114 56.66364 
L 306.636804 61.595461 
L 307.652448 68.734834 
L 308.795049 78.484103 
L 310.191561 92.464424 
L 312.095895 114.132075 
L 317.301076 175.056477 
L 318.697588 188.406628 
L 319.840188 197.517364 
L 320.855833 204.012219 
L 321.744523 208.33277 
L 322.506256 210.962111 
L 323.141035 212.369092 
L 323.648857 212.971848 
L 324.029724 213.116433 
L 324.410591 212.996864 
L 324.791458 212.613527 
L 325.29928 211.694373 
L 325.934058 209.89757 
L 326.568836 207.396302 
L 327.33057 203.496994 
L 328.219259 197.775048 
L 329.234904 189.814476 
L 330.504461 178.004544 
L 332.027928 161.674116 
L 334.440085 133.004307 
L 337.613976 95.601881 
L 339.264399 78.818709 
L 340.533955 68.034492 
L 341.5496 61.03292 
L 342.438289 56.232402 
L 343.200023 53.171181 
L 343.834801 51.394114 
L 344.342624 50.491015 
L 344.72349 50.119812 
L 345.104357 50.012413 
L 345.485224 50.169167 
L 345.866091 50.589565 
L 346.373914 51.557733 
L 347.008692 53.414769 
L 347.64347 55.97461 
L 348.405203 59.941278 
L 349.293893 65.736675 
L 350.436493 74.874947 
L 351.70605 86.949397 
L 353.356473 104.967938 
L 356.149496 138.505558 
L 358.688609 168.111603 
L 360.339032 184.806106 
L 361.608588 195.501301 
L 362.624233 202.420945 
L 363.512923 207.143559 
L 364.274656 210.134476 
L 364.909434 211.851159 
L 365.417257 212.705165 
L 365.798124 213.039275 
L 366.178991 213.10948 
L 366.559858 212.915553 
L 366.940724 212.458121 
L 367.448547 211.440999 
L 368.083325 209.523852 
L 368.845059 206.299781 
L 369.733748 201.319165 
L 370.749393 194.128675 
L 371.891994 184.329222 
L 373.288506 170.30012 
L 375.19284 148.591675 
L 380.39802 87.72222 
L 381.794532 74.425533 
L 382.937133 65.368212 
L 383.952778 58.926811 
L 384.841467 54.656641 
L 385.603201 52.072462 
L 386.237979 50.704064 
L 386.745802 50.132547 
L 387.126668 50.01149 
L 387.507535 50.154588 
L 387.888402 50.561377 
L 388.396225 51.511551 
L 389.031003 53.346478 
L 389.665781 55.884826 
L 390.427515 59.826784 
L 391.316204 65.595247 
L 392.458805 74.702613 
L 393.728361 86.748635 
L 395.378784 104.741114 
L 398.171808 138.266335 
L 400.837876 169.275513 
L 402.361343 184.624031 
L 403.630899 195.352001 
L 404.646544 202.301787 
L 405.535234 207.053049 
L 406.296968 210.069809 
L 406.931746 211.808682 
L 407.439568 212.680726 
L 407.820435 213.028462 
L 408.201302 213.112328 
L 408.582169 212.932052 
L 408.963036 212.488218 
L 409.470858 211.489069 
L 410.105636 209.593984 
L 410.86737 206.395541 
L 411.756059 201.443233 
L 412.771704 194.282392 
L 413.914305 184.512039 
L 415.310817 170.511208 
L 417.215151 148.826375 
L 422.420332 87.924834 
L 423.816844 74.597072 
L 424.959444 65.508717 
L 425.975089 59.036267 
L 426.863778 54.736839 
L 427.625512 52.126438 
L 428.26029 50.73564 
L 428.768113 50.145988 
L 429.14898 50.011273 
L 429.529847 50.140714 
L 429.910713 50.533891 
L 430.418536 51.466062 
L 431.053314 53.278866 
L 431.688092 55.795698 
L 432.449826 59.712911 
L 433.338515 65.454391 
L 434.35416 73.43508 
L 435.623716 85.26618 
L 437.27414 103.059727 
L 439.813252 133.391653 
L 442.733231 167.681756 
L 444.383654 184.441496 
L 445.653211 195.202149 
L 446.668856 202.182017 
L 447.557545 206.961884 
L 448.319279 210.004462 
L 448.954057 211.765511 
L 449.461879 212.655584 
L 449.842746 213.016943 
L 450.223613 213.114469 
L 450.60448 212.947846 
L 450.985347 212.517615 
L 451.493169 211.536445 
L 452.127947 209.663441 
L 452.889681 206.490652 
L 453.778371 201.566695 
L 454.794016 194.435565 
L 455.936616 184.694396 
L 457.333128 170.721958 
L 459.237462 149.060924 
L 464.442643 88.127826 
L 465.839155 74.769104 
L 466.981755 65.649794 
L 467.9974 59.146352 
L 468.88609 54.817704 
L 469.647823 52.181102 
L 470.282602 50.767915 
L 470.790424 50.160134 
L 471.171291 50.011763 
L 471.552158 50.127546 
L 471.933025 50.507108 
L 472.440847 51.421267 
L 472.94867 52.79682 
L 473.583448 55.152784 
L 474.345181 58.884711 
L 475.233871 64.423735 
L 476.249516 72.19547 
L 477.519072 83.805964 
L 479.04254 99.959998 
L 481.327741 126.964807 
L 484.755543 167.466362 
L 486.405966 184.258502 
L 487.675522 195.051745 
L 488.691167 202.061634 
L 489.579856 206.870067 
L 490.34159 209.938435 
L 490.976368 211.721644 
L 491.484191 212.629739 
L 491.865057 213.004718 
L 492.245924 213.115903 
L 492.626791 212.962935 
L 493.007658 212.546309 
L 493.515481 211.583129 
L 494.150259 209.732221 
L 494.785037 207.178336 
L 495.546771 203.218515 
L 496.43546 197.43058 
L 497.57806 188.300868 
L 498.847617 176.234289 
L 500.49804 158.222957 
L 503.291064 124.688746 
L 505.830176 95.075895 
L 507.480599 78.372315 
L 508.750155 67.668024 
L 509.7658 60.740018 
L 510.65449 56.009457 
L 511.416223 53.011373 
L 512.051001 51.288537 
L 512.558824 50.429529 
L 512.939691 50.091641 
L 513.320558 50.017649 
L 513.701425 50.207792 
L 514.082291 50.661454 
L 514.590114 51.673594 
L 515.224892 53.584627 
L 515.986626 56.801595 
L 516.875315 61.774368 
L 517.89096 68.956645 
L 519.033561 78.748039 
L 520.430073 92.769315 
L 522.334407 114.471233 
L 527.539588 175.349636 
L 528.936099 188.65495 
L 530.0787 197.720882 
L 531.094345 204.170896 
L 531.983034 208.449182 
L 532.744768 211.040633 
L 533.379546 212.415242 
L 533.887369 212.991787 
L 534.268236 213.116631 
L 534.649102 212.977319 
L 535.029969 212.574302 
L 535.537792 211.629119 
L 536.17257 209.800323 
L 536.807348 207.267938 
L 537.569082 203.332837 
L 538.457771 197.571849 
L 539.473416 189.571079 
L 540.742972 177.718865 
L 542.393395 159.90563 
L 544.932508 129.562873 
L 547.852487 95.290748 
L 549.50291 78.554517 
L 550.772467 67.817477 
L 551.788111 60.859345 
L 552.676801 56.100149 
L 553.438535 53.076228 
L 554.073313 51.331206 
L 554.581135 50.454163 
L 554.962002 50.10265 
L 555.342869 50.014997 
L 555.723736 50.191488 
L 556.104603 50.631551 
L 556.612425 51.625717 
L 557.247203 53.514681 
L 558.008937 56.706016 
L 558.897626 61.650468 
L 559.913271 68.803078 
L 561.055872 78.565349 
L 562.452384 92.558321 
L 564.356718 114.236575 
L 569.561899 175.146917 
L 570.958411 188.483274 
L 572.101011 197.580219 
L 573.116656 204.061266 
L 574.005346 208.368798 
L 574.767079 210.986466 
L 575.401857 212.383472 
L 575.90968 212.978151 
L 576.290547 213.116652 
L 576.671414 212.990997 
L 577.05228 212.601594 
L 577.560103 211.674416 
L 578.194881 209.867748 
L 578.829659 207.356884 
L 579.591393 203.446537 
L 580.480082 197.712547 
L 581.495727 189.73957 
L 582.765283 177.916583 
L 584.288751 161.57469 
L 586.700908 132.897365 
L 589.874798 95.505916 
L 591.525221 78.73718 
L 592.794778 67.967482 
L 593.810423 60.979286 
L 594.699112 56.191494 
L 595.460846 53.141764 
L 596.095624 51.37457 
L 596.603446 50.4795 
L 596.984313 50.114365 
L 597.36518 50.013052 
L 597.746047 50.175889 
L 598.126914 50.602349 
L 598.634736 51.578532 
L 599.269514 53.445412 
L 600.031248 56.611085 
L 600.919938 61.527174 
L 601.935583 68.650056 
L 602.189494 70.66399 
L 602.189494 70.66399 
" clip-path="url(#p63747da4f8)" style="fill: none; stroke: #1f77b4; stroke-width: 1.5; stroke-linecap: square"/>
   </g>
   <g id="line2d_24">
    <path d="M 82.306218 131.563995 
L 82.940996 131.451746 
L 83.70273 131.076376 
L 84.464463 130.450384 
L 85.353153 129.424173 
L 86.368798 127.89772 
L 87.638354 125.535657 
L 89.161821 122.189616 
L 91.700934 115.95971 
L 94.367002 109.591534 
L 95.890469 106.500609 
L 97.160026 104.41591 
L 98.175671 103.140115 
L 99.06436 102.344284 
L 99.826094 101.917061 
L 100.587827 101.735463 
L 101.349561 101.805833 
L 102.111295 102.131133 
L 102.873029 102.710916 
L 103.761718 103.703643 
L 104.777363 105.240242 
L 105.919964 107.448222 
L 107.18952 110.43342 
L 108.712987 114.626337 
L 110.744277 120.930549 
L 115.568591 136.204778 
L 117.092058 140.237123 
L 118.361615 143.045857 
L 119.504215 145.06299 
L 120.51986 146.405356 
L 121.40855 147.209794 
L 122.170283 147.615001 
L 122.932017 147.753918 
L 123.693751 147.626436 
L 124.455485 147.235846 
L 125.217218 146.588796 
L 126.105908 145.523186 
L 127.121553 143.921995 
L 128.264153 141.680645 
L 129.660665 138.408348 
L 131.438044 133.6232 
L 137.278002 117.332458 
L 138.674514 114.292791 
L 139.817115 112.280676 
L 140.83276 110.905468 
L 141.721449 110.049365 
L 142.483183 109.586863 
L 143.244917 109.382096 
L 144.00665 109.438489 
L 144.768384 109.756063 
L 145.530118 110.331436 
L 146.418807 111.319358 
L 147.434452 112.845487 
L 148.577053 115.02787 
L 149.846609 117.957966 
L 151.497032 122.396242 
L 153.909189 129.641884 
L 157.210035 139.493084 
L 158.860458 143.734873 
L 160.130015 146.462665 
L 161.272615 148.430608 
L 162.28826 149.744893 
L 163.17695 150.534483 
L 163.938683 150.932582 
L 164.700417 151.068209 
L 165.462151 150.939947 
L 166.223885 150.549784 
L 166.985618 149.903092 
L 167.874308 148.836156 
L 168.889953 147.22886 
L 170.032553 144.971708 
L 171.429065 141.662693 
L 173.206444 136.796054 
L 179.681181 118.364946 
L 181.077692 115.382118 
L 182.220293 113.443896 
L 183.235938 112.151136 
L 184.124627 111.377243 
L 184.886361 110.990704 
L 185.648095 110.865264 
L 186.409829 111.002698 
L 187.171562 111.401374 
L 187.933296 112.056272 
L 188.821985 113.132853 
L 189.83763 114.751897 
L 190.980231 117.02405 
L 192.376743 120.355244 
L 194.154122 125.258242 
L 200.755814 144.219802 
L 202.152326 147.213665 
L 203.294926 149.156183 
L 204.310571 150.449808 
L 205.199261 151.222628 
L 205.960994 151.607195 
L 206.722728 151.729958 
L 207.484462 151.589393 
L 208.246196 151.187385 
L 209.007929 150.529204 
L 209.896619 149.449179 
L 210.912264 147.827156 
L 212.054864 145.553478 
L 213.451376 142.223953 
L 215.228755 137.330111 
L 221.703492 118.783281 
L 223.100004 115.772247 
L 224.242604 113.810463 
L 225.258249 112.496576 
L 226.146939 111.704196 
L 226.908672 111.301905 
L 227.670406 111.160884 
L 228.43214 111.282987 
L 229.193873 111.666664 
L 229.955607 112.306976 
L 230.844297 113.367161 
L 231.859942 114.968434 
L 233.002542 117.22202 
L 234.399054 120.532855 
L 236.176433 125.41409 
L 239.858146 136.462005 
L 241.889436 142.134358 
L 243.412903 145.776938 
L 244.68246 148.257236 
L 245.698104 149.812606 
L 246.586794 150.829574 
L 247.475483 151.506537 
L 248.237217 151.806987 
L 248.998951 151.844915 
L 249.760684 151.619846 
L 250.522418 151.134704 
L 251.284152 150.395785 
L 252.172841 149.225918 
L 253.188486 147.508798 
L 254.331087 145.140266 
L 255.727599 141.715875 
L 257.504977 136.740376 
L 263.471892 119.516848 
L 264.868404 116.38292 
L 266.011004 114.303007 
L 267.026649 112.873715 
L 267.915339 111.97444 
L 268.677072 111.477592 
L 269.438806 111.240571 
L 270.20054 111.266451 
L 270.962273 111.554902 
L 271.724007 112.102198 
L 272.612697 113.058231 
L 273.628342 114.548426 
L 274.770942 116.690171 
L 276.040498 119.573752 
L 277.690921 123.947685 
L 280.103078 131.088035 
L 283.403925 140.769517 
L 285.054348 144.915951 
L 286.323904 147.566678 
L 287.466504 149.463299 
L 288.482149 150.71327 
L 289.370839 151.446366 
L 290.132573 151.796221 
L 290.894306 151.884062 
L 291.65604 151.708753 
L 292.417774 151.272568 
L 293.179507 150.581154 
L 294.068197 149.46405 
L 295.083842 147.802565 
L 296.226442 145.489132 
L 297.622954 142.119046 
L 299.400333 137.188446 
L 305.621159 119.270493 
L 307.01767 116.181843 
L 308.160271 114.146055 
L 309.175916 112.760212 
L 310.064605 111.901391 
L 310.826339 111.440458 
L 311.588073 111.239999 
L 312.349807 111.302611 
L 313.11154 111.627485 
L 313.873274 112.210417 
L 314.761963 113.20641 
L 315.777608 114.739279 
L 316.920209 116.924034 
L 318.189765 119.847726 
L 319.840188 124.259449 
L 322.379301 131.807436 
L 325.426236 140.723005 
L 327.076659 144.877235 
L 328.346215 147.53587 
L 329.488816 149.440764 
L 330.504461 150.6988 
L 331.39315 151.439347 
L 332.154884 151.795774 
L 332.916617 151.890265 
L 333.678351 151.721598 
L 334.440085 151.291956 
L 335.201819 150.606904 
L 336.090508 149.496874 
L 337.106153 147.842866 
L 338.248754 145.536857 
L 339.645265 142.174116 
L 341.422644 137.249642 
L 347.770425 119.015408 
L 349.166937 115.973453 
L 350.309538 113.982796 
L 351.325183 112.641171 
L 352.213872 111.823374 
L 352.975606 111.398763 
L 353.73734 111.235199 
L 354.499073 111.334801 
L 355.260807 111.696279 
L 356.022541 112.314953 
L 356.91123 113.350943 
L 357.926875 114.926413 
L 359.069476 117.153962 
L 360.465988 120.438214 
L 362.116411 124.929617 
L 365.03639 133.674009 
L 367.575503 141.014113 
L 369.225926 145.123068 
L 370.495482 147.736629 
L 371.638082 149.594784 
L 372.653727 150.807498 
L 373.542417 151.506323 
L 374.304151 151.826037 
L 375.065884 151.883439 
L 375.827618 151.677784 
L 376.589352 151.211737 
L 377.351086 150.49133 
L 378.239775 149.341992 
L 379.25542 147.646459 
L 380.39802 145.299203 
L 381.794532 141.895577 
L 383.571911 136.936782 
L 389.665781 119.369555 
L 391.062293 116.263715 
L 392.204893 114.211295 
L 393.220538 112.809141 
L 394.109228 111.935174 
L 394.870961 111.460819 
L 395.632695 111.246713 
L 396.394429 111.295631 
L 397.156163 111.606938 
L 397.917896 112.176604 
L 398.806586 113.157732 
L 399.822231 114.674732 
L 400.964831 116.843494 
L 402.234388 119.752266 
L 403.884811 124.149901 
L 406.423923 131.68959 
L 409.470858 140.617631 
L 411.121281 144.788091 
L 412.390837 147.463013 
L 413.533438 149.384869 
L 414.549083 150.6594 
L 415.437772 151.415164 
L 416.199506 151.785003 
L 416.96124 151.893063 
L 417.722974 151.737945 
L 418.484707 151.321658 
L 419.246441 150.649591 
L 420.13513 149.554022 
L 421.150775 147.915317 
L 422.293376 145.624548 
L 423.689888 142.276973 
L 425.467267 137.36534 
L 431.815048 119.110491 
L 433.21156 116.051202 
L 434.35416 114.043837 
L 435.369805 112.68587 
L 436.258495 111.85293 
L 437.020228 111.414922 
L 437.781962 111.23776 
L 438.543696 111.323739 
L 439.30543 111.671744 
L 440.067163 112.277271 
L 440.955853 113.298558 
L 441.971498 114.85838 
L 443.114098 117.070227 
L 444.383654 120.019088 
L 446.034078 124.454354 
L 448.700146 132.40104 
L 451.620125 140.9083 
L 453.270548 145.033956 
L 454.540104 147.664113 
L 455.682705 149.539458 
L 456.69835 150.768828 
L 457.587039 151.482975 
L 458.348773 151.816164 
L 459.110507 151.887171 
L 459.87224 151.695078 
L 460.633974 151.24237 
L 461.395708 150.53491 
L 462.284397 149.399957 
L 463.300042 147.719603 
L 464.442643 145.387404 
L 465.839155 141.998667 
L 467.616533 137.052298 
L 473.710403 119.465673 
L 475.106915 116.342927 
L 476.249516 114.274083 
L 477.265161 112.855785 
L 478.15385 111.966801 
L 478.915584 111.479121 
L 479.677318 111.251456 
L 480.439051 111.286754 
L 481.200785 111.584558 
L 481.962519 112.141013 
L 482.851208 113.107323 
L 483.866853 114.608492 
L 485.009454 116.761285 
L 486.27901 119.655139 
L 487.929433 124.038662 
L 490.34159 131.18426 
L 493.515481 140.510373 
L 495.165904 144.697014 
L 496.43546 147.388202 
L 497.57806 149.327013 
L 498.593705 150.618046 
L 499.482395 151.389044 
L 500.244129 151.772318 
L 501.005862 151.893978 
L 501.767596 151.75245 
L 502.52933 151.349565 
L 503.291064 150.690539 
L 504.179753 149.609503 
L 505.195398 147.986199 
L 506.337998 145.710792 
L 507.73451 142.378548 
L 509.511889 137.479988 
L 515.986626 118.901302 
L 517.383138 115.880603 
L 518.525738 113.910406 
L 519.541383 112.588772 
L 520.430073 111.789485 
L 521.191806 111.381237 
L 521.95354 111.23427 
L 522.715274 111.35049 
L 523.477008 111.728389 
L 524.238741 112.363078 
L 525.127431 113.416958 
L 526.143076 115.011444 
L 527.285676 117.258043 
L 528.682188 120.561438 
L 530.459567 125.43521 
L 534.014324 136.100439 
L 536.17257 142.148397 
L 537.696037 145.793202 
L 538.965594 148.276404 
L 539.981239 149.83466 
L 540.869928 150.854477 
L 541.758617 151.534515 
L 542.520351 151.837721 
L 543.282085 151.878466 
L 544.043818 151.656224 
L 544.805552 151.173871 
L 545.567286 150.437651 
L 546.455975 149.270763 
L 547.47162 147.55673 
L 548.614221 145.191153 
L 550.010733 141.769459 
L 551.788111 136.795675 
L 557.755026 119.562078 
L 559.151538 116.42254 
L 560.294138 114.33735 
L 561.309783 112.902961 
L 562.198473 111.998994 
L 562.960206 111.49801 
L 563.72194 111.256797 
L 564.483674 111.278478 
L 565.245408 111.562772 
L 566.007141 112.105998 
L 566.895831 113.05746 
L 567.78452 114.334893 
L 568.800165 116.164853 
L 570.069721 118.944548 
L 571.593189 122.868085 
L 573.751434 129.141641 
L 577.814014 141.090957 
L 579.464437 145.187718 
L 580.733994 147.789201 
L 581.876594 149.63487 
L 582.892239 150.835501 
L 583.780928 151.523222 
L 584.542662 151.833177 
L 585.304396 151.88073 
L 586.06613 151.665266 
L 586.827863 151.189575 
L 587.589597 150.459814 
L 588.478287 149.300092 
L 589.493932 147.593609 
L 590.636532 145.235505 
L 592.033044 141.821174 
L 593.810423 136.853483 
L 599.777337 119.610435 
L 601.173849 116.462542 
L 602.189494 114.578092 
L 602.189494 114.578092 
" clip-path="url(#p63747da4f8)" style="fill: none; stroke: #ff7f0e; stroke-width: 1.5; stroke-linecap: square"/>
   </g>
   <g id="patch_3">
    <path d="M 56.312054 221.272 
L 56.312054 41.856 
" style="fill: none; stroke: #000000; stroke-width: 0.8; stroke-linejoin: miter; stroke-linecap: square"/>
   </g>
   <g id="patch_4">
    <path d="M 628.183658 221.272 
L 628.183658 41.856 
" style="fill: none; stroke: #000000; stroke-width: 0.8; stroke-linejoin: miter; stroke-linecap: square"/>
   </g>
   <g id="patch_5">
    <path d="M 56.312054 221.272 
L 628.183658 221.272 
" style="fill: none; stroke: #000000; stroke-width: 0.8; stroke-linejoin: miter; stroke-linecap: square"/>
   </g>
   <g id="patch_6">
    <path d="M 56.312054 41.856 
L 628.183658 41.856 
" style="fill: none; stroke: #000000; stroke-width: 0.8; stroke-linejoin: miter; stroke-linecap: square"/>
   </g>
   <g id="text_14">
    <!-- Daily Useless RC (2026-01-18) | verdict: feral -->
    <g transform="translate(206.807231 22.021875) scale(0.12 -0.12)">
     <defs>
      <path id="DejaVuSans-44" d="M 1259 4147 
L 1259 519 
L 2022 519 
Q 2988 519 3436 956 
Q 3884 1394 3884 2338 
Q 3884 3275 3436 3711 
Q 2988 4147 2022 4147 
L 1259 4147 
z
M 628 4666 
L 1925 4666 
Q 3281 4666 3915 4102 
Q 4550 3538 4550 2338 
Q 4550 1131 3912 565 
Q 3275 0 1925 0 
L 628 0 
L 628 4666 
z
" transform="scale(0.015625)"/>
      <path id="DejaVuSans-69" d="M 603 3500 
L 1178 3500 
L 1178 0 
L 603 0 
L 603 3500 
z
M 603 4863 
L 1178 4863 
L 1178 4134 
L 603 4134 
L 603 4863 
z
" transform="scale(0.015625)"/>
      <path id="DejaVuSans-6c" d="M 603 4863 
L 1178 4863 
L 1178 0 
L 603 0 
L 603 4863 
z
" transform="scale(0.015625)"/>
      <path id="DejaVuSans-79" d="M 2059 -325 
Q 1816 -950 1584 -1140 
Q 1353 -1331 966 -1331 
L 506 -1331 
L 506 -850 
L 844 -850 
Q 1081 -850 1212 -737 
Q 1344 -625 1503 -206 
L 1606 56 
L 191 3500 
L 800 3500 
L 1894 763 
L 2988 3500 
L 3597 3500 
L 2059 -325 
z
" transform="scale(0.015625)"/>
      <path id="DejaVuSans-55" d="M 556 4666 
L 1191 4666 
L 1191 1831 
Q 1191 1081 1462 751 
Q 1734 422 2344 422 
Q 2950 422 3222 751 
Q 3494 1081 3494 1831 
L 3494 4666 
L 4128 4666 
L 4128 1753 
Q 4128 841 3676 375 
Q 3225 -91 2344 -91 
Q 1459 -91 1007 375 
Q 556 841 556 1753 
L 556 4666 
z
" transform="scale(0.015625)"/>
      <path id="DejaVuSans-73" d="M 2834 3397 
L 2834 2853 
Q 2591 2978 2328 3040 
Q 2066 3103 1784 3103 
Q 1356 3103 1142 2972 
Q 928 2841 928 2578 
Q 928 2378 1081 2264 
Q 1234 2150 1697 2047 
L 1894 2003 
Q 2506 1872 2764 1633 
Q 3022 1394 3022 966 
Q 3022 478 2636 193 
Q 2250 -91 1575 -91 
Q 1294 -91 989 -36 
Q 684 19 347 128 
L 347 722 
Q 666 556 975 473 
Q 1284 391 1588 391 
Q 1994 391 2212 530 
Q 2431 669 2431 922 
Q 2431 1156 2273 1281 
Q 2116 1406 1581 1522 
L 1381 1569 
Q 847 1681 609 1914 
Q 372 2147 372 2553 
Q 372 3047 722 3315 
Q 1072 3584 1716 3584 
Q 2034 3584 2315 3537 
Q 2597 3491 2834 3397 
z
" transform="scale(0.015625)"/>
      <path id="DejaVuSans-65" d="M 3597 1894 
L 3597 1613 
L 953 1613 
Q 991 1019 1311 708 
Q 1631 397 2203 397 
Q 2534 397 2845 478 
Q 3156 559 3463 722 
L 3463 178 
Q 3153 47 2828 -22 
Q 2503 -91 2169 -91 
Q 1331 -91 842 396 
Q 353 884 353 1716 
Q 353 2575 817 3079 
Q 1281 3584 2069 3584 
Q 2775 3584 3186 3129 
Q 3597 2675 3597 1894 
z
M 3022 2063 
Q 3016 2534 2758 2815 
Q 2500 3097 2075 3097 
Q 1594 3097 1305 2825 
Q 1016 2553 972 2059 
L 3022 2063 
z
" transform="scale(0.015625)"/>
      <path id="DejaVuSans-52" d="M 2841 2188 
Q 3044 2119 3236 1894 
Q 3428 1669 3622 1275 
L 4263 0 
L 3584 0 
L 2988 1197 
Q 2756 1666 2539 1819 
Q 2322 1972 1947 1972 
L 1259 1972 
L 1259 0 
L 628 0 
L 628 4666 
L 2053 4666 
Q 2853 4666 3247 4331 
Q 3641 3997 3641 3322 
Q 3641 2881 3436 2590 
Q 3231 2300 2841 2188 
z
M 1259 4147 
L 1259 2491 
L 2053 2491 
Q 2509 2491 2742 2702 
Q 2975 2913 2975 3322 
Q 2975 3731 2742 3939 
Q 2509 4147 2053 4147 
L 1259 4147 
z
" transform="scale(0.015625)"/>
      <path id="DejaVuSans-43" d="M 4122 4306 
L 4122 3641 
Q 3803 3938 3442 4084 
Q 3081 4231 2675 4231 
Q 1875 4231 1450 3742 
Q 1025 3253 1025 2328 
Q 1025 1406 1450 917 
Q 1875 428 2675 428 
Q 3081 428 3442 575 
Q 3803 722 4122 1019 
L 4122 359 
Q 3791 134 3420 21 
Q 3050 -91 2638 -91 
Q 1578 -91 968 557 
Q 359 1206 359 2328 
Q 359 3453 968 4101 
Q 1578 4750 2638 4750 
Q 3056 4750 3426 4639 
Q 3797 4528 4122 4306 
z
" transform="scale(0.015625)"/>
      <path id="DejaVuSans-28" d="M 1984 4856 
Q 1566 4138 1362 3434 
Q 1159 2731 1159 2009 
Q 1159 1288 1364 580 
Q 1569 -128 1984 -844 
L 1484 -844 
Q 1016 -109 783 600 
Q 550 1309 550 2009 
Q 550 2706 781 3412 
Q 1013 4119 1484 4856 
L 1984 4856 
z
" transform="scale(0.015625)"/>
      <path id="DejaVuSans-2d" d="M 313 2009 
L 1997 2009 
L 1997 1497 
L 313 1497 
L 313 2009 
z
" transform="scale(0.015625)"/>
      <path id="DejaVuSans-29" d="M 513 4856 
L 1013 4856 
Q 1481 4119 1714 3412 
Q 1947 2706 1947 2009 
Q 1947 1309 1714 600 
Q 1481 -109 1013 -844 
L 513 -844 
Q 928 -128 1133 580 
Q 1338 1288 1338 2009 
Q 1338 2731 1133 3434 
Q 928 4138 513 4856 
z
" transform="scale(0.015625)"/>
      <path id="DejaVuSans-7c" d="M 1344 4891 
L 1344 -1509 
L 813 -1509 
L 813 4891 
L 1344 4891 
z
" transform="scale(0.015625)"/>
      <path id="DejaVuSans-76" d="M 191 3500 
L 800 3500 
L 1894 563 
L 2988 3500 
L 3597 3500 
L 2284 0 
L 1503 0 
L 191 3500 
z
" transform="scale(0.015625)"/>
      <path id="DejaVuSans-64" d="M 2906 2969 
L 2906 4863 
L 3481 4863 
L 3481 0 
L 2906 0 
L 2906 525 
Q 2725 213 2448 61 
Q 2172 -91 1784 -91 
Q 1150 -91 751 415 
Q 353 922 353 1747 
Q 353 2572 751 3078 
Q 1150 3584 1784 3584 
Q 2172 3584 2448 3432 
Q 2725 3281 2906 2969 
z
M 947 1747 
Q 947 1113 1208 752 
Q 1469 391 1925 391 
Q 2381 391 2643 752 
Q 2906 1113 2906 1747 
Q 2906 2381 2643 2742 
Q 2381 3103 1925 3103 
Q 1469 3103 1208 2742 
Q 947 2381 947 1747 
z
" transform="scale(0.015625)"/>
      <path id="DejaVuSans-63" d="M 3122 3366 
L 3122 2828 
Q 2878 2963 2633 3030 
Q 2388 3097 2138 3097 
Q 1578 3097 1268 2742 
Q 959 2388 959 1747 
Q 959 1106 1268 751 
Q 1578 397 2138 397 
Q 2388 397 2633 464 
Q 2878 531 3122 666 
L 3122 134 
Q 2881 22 2623 -34 
Q 2366 -91 2075 -91 
Q 1284 -91 818 406 
Q 353 903 353 1747 
Q 353 2603 823 3093 
Q 1294 3584 2113 3584 
Q 2378 3584 2631 3529 
Q 2884 3475 3122 3366 
z
" transform="scale(0.015625)"/>
      <path id="DejaVuSans-3a" d="M 750 794 
L 1409 794 
L 1409 0 
L 750 0 
L 750 794 
z
M 750 3309 
L 1409 3309 
L 1409 2516 
L 750 2516 
L 750 3309 
z
" transform="scale(0.015625)"/>
      <path id="DejaVuSans-66" d="M 2375 4863 
L 2375 4384 
L 1825 4384 
Q 1516 4384 1395 4259 
Q 1275 4134 1275 3809 
L 1275 3500 
L 2222 3500 
L 2222 3053 
L 1275 3053 
L 1275 0 
L 697 0 
L 697 3053 
L 147 3053 
L 147 3500 
L 697 3500 
L 697 3744 
Q 697 4328 969 4595 
Q 1241 4863 1831 4863 
L 2375 4863 
z
" transform="scale(0.015625)"/>
     </defs>
     <use xlink:href="#DejaVuSans-44"/>
     <use xlink:href="#DejaVuSans-61" transform="translate(77.001953 0)"/>
     <use xlink:href="#DejaVuSans-69" transform="translate(138.28125 0)"/>
     <use xlink:href="#DejaVuSans-6c" transform="translate(166.064453 0)"/>
     <use xlink:href="#DejaVuSans-79" transform="translate(193.847656 0)"/>
     <use xlink:href="#DejaVuSans-20" transform="translate(253.027344 0)"/>
     <use xlink:href="#DejaVuSans-55" transform="translate(284.814453 0)"/>
     <use xlink:href="#DejaVuSans-73" transform="translate(358.007812 0)"/>
     <use xlink:href="#DejaVuSans-65" transform="translate(410.107422 0)"/>
     <use xlink:href="#DejaVuSans-6c" transform="translate(471.630859 0)"/>
     <use xlink:href="#DejaVuSans-65" transform="translate(499.414062 0)"/>
     <use xlink:href="#DejaVuSans-73" transform="translate(560.9375 0)"/>
     <use xlink:href="#DejaVuSans-73" transform="translate(613.037109 0)"/>
     <use xlink:href="#DejaVuSans-20" transform="translate(665.136719 0)"/>
     <use xlink:href="#DejaVuSans-52" transform="translate(696.923828 0)"/>
     <use xlink:href="#DejaVuSans-43" transform="translate(761.40625 0)"/>
     <use xlink:href="#DejaVuSans-20" transform="translate(831.230469 0)"/>
     <use xlink:href="#DejaVuSans-28" transform="translate(863.017578 0)"/>
     <use xlink:href="#DejaVuSans-32" transform="translate(902.03125 0)"/>
     <use xlink:href="#DejaVuSans-30" transform="translate(965.654297 0)"/>
     <use xlink:href="#DejaVuSans-32" transform="translate(1029.277344 0)"/>
     <use xlink:href="#DejaVuSans-36" transform="translate(1092.900391 0)"/>
     <use xlink:href="#DejaVuSans-2d" transform="translate(1156.523438 0)"/>
     <use xlink:href="#DejaVuSans-30" transform="translate(1192.607422 0)"/>
     <use xlink:href="#DejaVuSans-31" transform="translate(1256.230469 0)"/>
     <use xlink:href="#DejaVuSans-2d" transform="translate(1319.853516 0)"/>
     <use xlink:href="#DejaVuSans-31" transform="translate(1355.9375 0)"/>
     <use xlink:href="#DejaVuSans-38" transform="translate(1419.560547 0)"/>
     <use xlink:href="#DejaVuSans-29" transform="translate(1483.183594 0)"/>
     <use xlink:href="#DejaVuSans-20" transform="translate(1522.197266 0)"/>
     <use xlink:href="#DejaVuSans-7c" transform="translate(1553.984375 0)"/>
     <use xlink:href="#DejaVuSans-20" transform="translate(1587.675781 0)"/>
     <use xlink:href="#DejaVuSans-76" transform="translate(1619.462891 0)"/>
     <use xlink:href="#DejaVuSans-65" transform="translate(1678.642578 0)"/>
     <use xlink:href="#DejaVuSans-72" transform="translate(1740.166016 0)"/>
     <use xlink:href="#DejaVuSans-64" transform="translate(1779.529297 0)"/>
     <use xlink:href="#DejaVuSans-69" transform="translate(1843.005859 0)"/>
     <use xlink:href="#DejaVuSans-63" transform="translate(1870.789062 0)"/>
     <use xlink:href="#DejaVuSans-74" transform="translate(1925.769531 0)"/>
     <use xlink:href="#DejaVuSans-3a" transform="translate(1964.978516 0)"/>
     <use xlink:href="#DejaVuSans-20" transform="translate(1998.669922 0)"/>
     <use xlink:href="#DejaVuSans-66" transform="translate(2030.457031 0)"/>
     <use xlink:href="#DejaVuSans-65" transform="translate(2065.662109 0)"/>
     <use xlink:href="#DejaVuSans-72" transform="translate(2127.185547 0)"/>
     <use xlink:href="#DejaVuSans-61" transform="translate(2168.298828 0)"/>
     <use xlink:href="#DejaVuSans-6c" transform="translate(2229.578125 0)"/>
    </g>
    <!-- Input: sine, sine (A=1.35, f=1.24 Hz) | R=5.00, C=0.10, τ=0.50 -->
    <g transform="translate(150.839418 35.856) scale(0.12 -0.12)">
     <defs>
      <path id="DejaVuSans-49" d="M 628 4666 
L 1259 4666 
L 1259 0 
L 628 0 
L 628 4666 
z
" transform="scale(0.015625)"/>
      <path id="DejaVuSans-6e" d="M 3513 2113 
L 3513 0 
L 2938 0 
L 2938 2094 
Q 2938 2591 2744 2837 
Q 2550 3084 2163 3084 
Q 1697 3084 1428 2787 
Q 1159 2491 1159 1978 
L 1159 0 
L 581 0 
L 581 3500 
L 1159 3500 
L 1159 2956 
Q 1366 3272 1645 3428 
Q 1925 3584 2291 3584 
Q 2894 3584 3203 3211 
Q 3513 2838 3513 2113 
z
" transform="scale(0.015625)"/>
      <path id="DejaVuSans-70" d="M 1159 525 
L 1159 -1331 
L 581 -1331 
L 581 3500 
L 1159 3500 
L 1159 2969 
Q 1341 3281 1617 3432 
Q 1894 3584 2278 3584 
Q 2916 3584 3314 3078 
Q 3713 2572 3713 1747 
Q 3713 922 3314 415 
Q 2916 -91 2278 -91 
Q 1894 -91 1617 61 
Q 1341 213 1159 525 
z
M 3116 1747 
Q 3116 2381 2855 2742 
Q 2594 3103 2138 3103 
Q 1681 3103 1420 2742 
Q 1159 2381 1159 1747 
Q 1159 1113 1420 752 
Q 1681 391 2138 391 
Q 2594 391 2855 752 
Q 3116 1113 3116 1747 
z
" transform="scale(0.015625)"/>
      <path id="DejaVuSans-75" d="M 544 1381 
L 544 3500 
L 1119 3500 
L 1119 1403 
Q 1119 906 1312 657 
Q 1506 409 1894 409 
Q 2359 409 2629 706 
Q 2900 1003 2900 1516 
L 2900 3500 
L 3475 3500 
L 3475 0 
L 2900 0 
L 2900 538 
Q 2691 219 2414 64 
Q 2138 -91 1772 -91 
Q 1169 -91 856 284 
Q 544 659 544 1381 
z
M 1991 3584 
L 1991 3584 
z
" transform="scale(0.015625)"/>
      <path id="DejaVuSans-2c" d="M 750 794 
L 1409 794 
L 1409 256 
L 897 -744 
L 494 -744 
L 750 256 
L 750 794 
z
" transform="scale(0.015625)"/>
      <path id="DejaVuSans-41" d="M 2188 4044 
L 1331 1722 
L 3047 1722 
L 2188 4044 
z
M 1831 4666 
L 2547 4666 
L 4325 0 
L 3669 0 
L 3244 1197 
L 1141 1197 
L 716 0 
L 50 0 
L 1831 4666 
z
" transform="scale(0.015625)"/>
      <path id="DejaVuSans-3d" d="M 678 2906 
L 4684 2906 
L 4684 2381 
L 678 2381 
L 678 2906 
z
M 678 1631 
L 4684 1631 
L 4684 1100 
L 678 1100 
L 678 1631 
z
" transform="scale(0.015625)"/>
      <path id="DejaVuSans-33" d="M 2597 2516 
Q 3050 2419 3304 2112 
Q 3559 1806 3559 1356 
Q 3559 666 3084 287 
Q 2609 -91 1734 -91 
Q 1441 -91 1130 -33 
Q 819 25 488 141 
L 488 750 
Q 750 597 1062 519 
Q 1375 441 1716 441 
Q 2309 441 2620 675 
Q 2931 909 2931 1356 
Q 2931 1769 2642 2001 
Q 2353 2234 1838 2234 
L 1294 2234 
L 1294 2753 
L 1863 2753 
Q 2328 2753 2575 2939 
Q 2822 3125 2822 3475 
Q 2822 3834 2567 4026 
Q 2313 4219 1838 4219 
Q 1578 4219 1281 4162 
Q 984 4106 628 3988 
L 628 4550 
Q 988 4650 1302 4700 
Q 1616 4750 1894 4750 
Q 2613 4750 3031 4423 
Q 3450 4097 3450 3541 
Q 3450 3153 3228 2886 
Q 3006 2619 2597 2516 
z
" transform="scale(0.015625)"/>
      <path id="DejaVuSans-48" d="M 628 4666 
L 1259 4666 
L 1259 2753 
L 3553 2753 
L 3553 4666 
L 4184 4666 
L 4184 0 
L 3553 0 
L 3553 2222 
L 1259 2222 
L 1259 0 
L 628 0 
L 628 4666 
z
" transform="scale(0.015625)"/>
      <path id="DejaVuSans-7a" d="M 353 3500 
L 3084 3500 
L 3084 2975 
L 922 459 
L 3084 459 
L 3084 0 
L 275 0 
L 275 525 
L 2438 3041 
L 353 3041 
L 353 3500 
z
" transform="scale(0.015625)"/>
      <path id="DejaVuSans-3c4" d="M 2319 638 
Q 2431 488 2769 488 
L 3047 488 
L 3047 0 
L 2700 0 
Q 2138 0 1881 300 
Q 1625 606 1625 1269 
L 1625 2925 
L 313 2925 
L 313 3500 
L 3541 3500 
L 3541 2925 
L 2213 2925 
L 2213 1234 
Q 2213 781 2319 638 
z
" transform="scale(0.015625)"/>
     </defs>
     <use xlink:href="#DejaVuSans-49"/>
     <use xlink:href="#DejaVuSans-6e" transform="translate(29.492188 0)"/>
     <use xlink:href="#DejaVuSans-70" transform="translate(92.871094 0)"/>
     <use xlink:href="#DejaVuSans-75" transform="translate(156.347656 0)"/>
     <use xlink:href="#DejaVuSans-74" transform="translate(219.726562 0)"/>
     <use xlink:href="#DejaVuSans-3a" transform="translate(258.935547 0)"/>
     <use xlink:href="#DejaVuSans-20" transform="translate(292.626953 0)"/>
     <use xlink:href="#DejaVuSans-73" transform="translate(324.414062 0)"/>
     <use xlink:href="#DejaVuSans-69" transform="translate(376.513672 0)"/>
     <use xlink:href="#DejaVuSans-6e" transform="translate(404.296875 0)"/>
     <use xlink:href="#DejaVuSans-65" transform="translate(467.675781 0)"/>
     <use xlink:href="#DejaVuSans-2c" transform="translate(529.199219 0)"/>
     <use xlink:href="#DejaVuSans-20" transform="translate(560.986328 0)"/>
     <use xlink:href="#DejaVuSans-73" transform="translate(592.773438 0)"/>
     <use xlink:href="#DejaVuSans-69" transform="translate(644.873047 0)"/>
     <use xlink:href="#DejaVuSans-6e" transform="translate(672.65625 0)"/>
     <use xlink:href="#DejaVuSans-65" transform="translate(736.035156 0)"/>
     <use xlink:href="#DejaVuSans-20" transform="translate(797.558594 0)"/>
     <use xlink:href="#DejaVuSans-28" transform="translate(829.345703 0)"/>
     <use xlink:href="#DejaVuSans-41" transform="translate(868.359375 0)"/>
     <use xlink:href="#DejaVuSans-3d" transform="translate(936.767578 0)"/>
     <use xlink:href="#DejaVuSans-31" transform="translate(1020.556641 0)"/>
     <use xlink:href="#DejaVuSans-2e" transform="translate(1084.179688 0)"/>
     <use xlink:href="#DejaVuSans-33" transform="translate(1115.966797 0)"/>
     <use xlink:href="#DejaVuSans-35" transform="translate(1179.589844 0)"/>
     <use xlink:href="#DejaVuSans-2c" transform="translate(1243.212891 0)"/>
     <use xlink:href="#DejaVuSans-20" transform="translate(1275 0)"/>
     <use xlink:href="#DejaVuSans-66" transform="translate(1306.787109 0)"/>
     <use xlink:href="#DejaVuSans-3d" transform="translate(1341.992188 0)"/>
     <use xlink:href="#DejaVuSans-31" transform="translate(1425.78125 0)"/>
     <use xlink:href="#DejaVuSans-2e" transform="translate(1489.404297 0)"/>
     <use xlink:href="#DejaVuSans-32" transform="translate(1521.191406 0)"/>
     <use xlink:href="#DejaVuSans-34" transform="translate(1584.814453 0)"/>
     <use xlink:href="#DejaVuSans-20" transform="translate(1648.4375 0)"/>
     <use xlink:href="#DejaVuSans-48" transform="translate(1680.224609 0)"/>
     <use xlink:href="#DejaVuSans-7a" transform="translate(1755.419922 0)"/>
     <use xlink:href="#DejaVuSans-29" transform="translate(1807.910156 0)"/>
     <use xlink:href="#DejaVuSans-20" transform="translate(1846.923828 0)"/>
     <use xlink:href="#DejaVuSans-7c" transform="translate(1878.710938 0)"/>
     <use xlink:href="#DejaVuSans-20" transform="translate(1912.402344 0)"/>
     <use xlink:href="#DejaVuSans-52" transform="translate(1944.189453 0)"/>
     <use xlink:href="#DejaVuSans-3d" transform="translate(2013.671875 0)"/>
     <use xlink:href="#DejaVuSans-35" transform="translate(2097.460938 0)"/>
     <use xlink:href="#DejaVuSans-2e" transform="translate(2161.083984 0)"/>
     <use xlink:href="#DejaVuSans-30" transform="translate(2192.871094 0)"/>
     <use xlink:href="#DejaVuSans-30" transform="translate(2256.494141 0)"/>
     <use xlink:href="#DejaVuSans-2c" transform="translate(2320.117188 0)"/>
     <use xlink:href="#DejaVuSans-20" transform="translate(2351.904297 0)"/>
     <use xlink:href="#DejaVuSans-43" transform="translate(2383.691406 0)"/>
     <use xlink:href="#DejaVuSans-3d" transform="translate(2453.515625 0)"/>
     <use xlink:href="#DejaVuSans-30" transform="translate(2537.304688 0)"/>
     <use xlink:href="#DejaVuSans-2e" transform="translate(2600.927734 0)"/>
     <use xlink:href="#DejaVuSans-31" transform="translate(2632.714844 0)"/>
     <use xlink:href="#DejaVuSans-30" transform="translate(2696.337891 0)"/>
     <use xlink:href="#DejaVuSans-2c" transform="translate(2759.960938 0)"/>
     <use xlink:href="#DejaVuSans-20" transform="translate(2791.748047 0)"/>
     <use xlink:href="#DejaVuSans-3c4" transform="translate(2823.535156 0)"/>
     <use xlink:href="#DejaVuSans-3d" transform="translate(2883.740234 0)"/>
     <use xlink:href="#DejaVuSans-30" transform="translate(2967.529297 0)"/>
     <use xlink:href="#DejaVuSans-2e" transform="translate(3031.152344 0)"/>
     <use xlink:href="#DejaVuSans-35" transform="translate(3062.939453 0)"/>
     <use xlink:href="#DejaVuSans-30" transform="translate(3126.5625 0)"/>
    </g>
   </g>
   <g id="legend_1">
    <g id="patch_7">
     <path d="M 63.312054 216.272 
L 128.294866 216.272 
Q 130.294866 216.272 130.294866 214.272 
L 130.294866 185.91575 
Q 130.294866 183.91575 128.294866 183.91575 
L 63.312054 183.91575 
Q 61.312054 183.91575 61.312054 185.91575 
L 61.312054 214.272 
Q 61.312054 216.272 63.312054 216.272 
z
" style="fill: #ffffff; opacity: 0.8; stroke: #cccccc; stroke-linejoin: miter"/>
    </g>
    <g id="line2d_25">
     <path d="M 65.312054 192.014187 
L 75.312054 192.014187 
L 85.312054 192.014187 
" style="fill: none; stroke: #1f77b4; stroke-width: 1.5; stroke-linecap: square"/>
    </g>
    <g id="text_15">
     <!-- input -->
     <g transform="translate(93.312054 195.514187) scale(0.1 -0.1)">
      <use xlink:href="#DejaVuSans-69"/>
      <use xlink:href="#DejaVuSans-6e" transform="translate(27.783203 0)"/>
      <use xlink:href="#DejaVuSans-70" transform="translate(91.162109 0)"/>
      <use xlink:href="#DejaVuSans-75" transform="translate(154.638672 0)"/>
      <use xlink:href="#DejaVuSans-74" transform="translate(218.017578 0)"/>
     </g>
    </g>
    <g id="line2d_26">
     <path d="M 65.312054 206.692313 
L 75.312054 206.692313 
L 85.312054 206.692313 
" style="fill: none; stroke: #ff7f0e; stroke-width: 1.5; stroke-linecap: square"/>
    </g>
    <g id="text_16">
     <!-- output -->
     <g transform="translate(93.312054 210.192313) scale(0.1 -0.1)">
      <defs>
       <path id="DejaVuSans-6f" d="M 1959 3097 
Q 1497 3097 1228 2736 
Q 959 2375 959 1747 
Q 959 1119 1226 758 
Q 1494 397 1959 397 
Q 2419 397 2687 759 
Q 2956 1122 2956 1747 
Q 2956 2369 2687 2733 
Q 2419 3097 1959 3097 
z
M 1959 3584 
Q 2709 3584 3137 3096 
Q 3566 2609 3566 1747 
Q 3566 888 3137 398 
Q 2709 -91 1959 -91 
Q 1206 -91 779 398 
Q 353 888 353 1747 
Q 353 2609 779 3096 
Q 1206 3584 1959 3584 
z
" transform="scale(0.015625)"/>
      </defs>
      <use xlink:href="#DejaVuSans-6f"/>
      <use xlink:href="#DejaVuSans-75" transform="translate(61.181641 0)"/>
      <use xlink:href="#DejaVuSans-74" transform="translate(124.560547 0)"/>
      <use xlink:href="#DejaVuSans-70" transform="translate(163.769531 0)"/>
      <use xlink:href="#DejaVuSans-75" transform="translate(227.246094 0)"/>
      <use xlink:href="#DejaVuSans-74" transform="translate(290.625 0)"/>
     </g>
    </g>
   </g>
  </g>
  <g id="axes_2">
   <g id="patch_8">
    <path d="M 56.312054 458.728 
L 628.183658 458.728 
L 628.183658 279.312 
L 56.312054 279.312 
z
" style="fill: #ffffff"/>
   </g>
   <g id="matplotlib.axis_3">
    <g id="xtick_7">
     <g id="line2d_27">
      <path d="M 56.342373 458.728 
L 56.342373 279.312 
" clip-path="url(#p9c6fc93f88)" style="fill: none; stroke: #b0b0b0; stroke-opacity: 0.25; stroke-width: 0.8; stroke-linecap: square"/>
     </g>
     <g id="line2d_28">
      <g>
       <use xlink:href="#m2ee055a958" x="56.342373" y="458.728" style="stroke: #000000; stroke-width: 0.8"/>
      </g>
     </g>
     <g id="text_17">
      <!-- $\mathdefault{10^{-1}}$ -->
      <g transform="translate(44.592373 473.326438) scale(0.1 -0.1)">
       <use xlink:href="#DejaVuSans-31" transform="translate(0 0.684375)"/>
       <use xlink:href="#DejaVuSans-30" transform="translate(63.623047 0.684375)"/>
       <use xlink:href="#DejaVuSans-2212" transform="translate(128.203125 38.965625) scale(0.7)"/>
       <use xlink:href="#DejaVuSans-31" transform="translate(186.855469 38.965625) scale(0.7)"/>
      </g>
     </g>
    </g>
    <g id="xtick_8">
     <g id="line2d_29">
      <path d="M 342.263016 458.728 
L 342.263016 279.312 
" clip-path="url(#p9c6fc93f88)" style="fill: none; stroke: #b0b0b0; stroke-opacity: 0.25; stroke-width: 0.8; stroke-linecap: square"/>
     </g>
     <g id="line2d_30">
      <g>
       <use xlink:href="#m2ee055a958" x="342.263016" y="458.728" style="stroke: #000000; stroke-width: 0.8"/>
      </g>
     </g>
     <g id="text_18">
      <!-- $\mathdefault{10^{0}}$ -->
      <g transform="translate(333.463016 473.326438) scale(0.1 -0.1)">
       <use xlink:href="#DejaVuSans-31" transform="translate(0 0.765625)"/>
       <use xlink:href="#DejaVuSans-30" transform="translate(63.623047 0.765625)"/>
       <use xlink:href="#DejaVuSans-30" transform="translate(128.203125 39.046875) scale(0.7)"/>
      </g>
     </g>
    </g>
    <g id="xtick_9">
     <g id="line2d_31">
      <path d="M 628.183658 458.728 
L 628.183658 279.312 
" clip-path="url(#p9c6fc93f88)" style="fill: none; stroke: #b0b0b0; stroke-opacity: 0.25; stroke-width: 0.8; stroke-linecap: square"/>
     </g>
     <g id="line2d_32">
      <g>
       <use xlink:href="#m2ee055a958" x="628.183658" y="458.728" style="stroke: #000000; stroke-width: 0.8"/>
      </g>
     </g>
     <g id="text_19">
      <!-- $\mathdefault{10^{1}}$ -->
      <g transform="translate(619.383658 473.326438) scale(0.1 -0.1)">
       <use xlink:href="#DejaVuSans-31" transform="translate(0 0.684375)"/>
       <use xlink:href="#DejaVuSans-30" transform="translate(63.623047 0.684375)"/>
       <use xlink:href="#DejaVuSans-31" transform="translate(128.203125 38.965625) scale(0.7)"/>
      </g>
     </g>
    </g>
    <g id="xtick_10">
     <g id="line2d_33">
      <defs>
       <path id="mcde218c366" d="M 0 0 
L 0 2 
" style="stroke: #000000; stroke-width: 0.6"/>
      </defs>
      <g>
       <use xlink:href="#mcde218c366" x="142.413063" y="458.728" style="stroke: #000000; stroke-width: 0.6"/>
      </g>
     </g>
    </g>
    <g id="xtick_11">
     <g id="line2d_34">
      <g>
       <use xlink:href="#mcde218c366" x="192.761189" y="458.728" style="stroke: #000000; stroke-width: 0.6"/>
      </g>
     </g>
    </g>
    <g id="xtick_12">
     <g id="line2d_35">
      <g>
       <use xlink:href="#mcde218c366" x="228.483753" y="458.728" style="stroke: #000000; stroke-width: 0.6"/>
      </g>
     </g>
    </g>
    <g id="xtick_13">
     <g id="line2d_36">
      <g>
       <use xlink:href="#mcde218c366" x="256.192326" y="458.728" style="stroke: #000000; stroke-width: 0.6"/>
      </g>
     </g>
    </g>
    <g id="xtick_14">
     <g id="line2d_37">
      <g>
       <use xlink:href="#mcde218c366" x="278.831879" y="458.728" style="stroke: #000000; stroke-width: 0.6"/>
      </g>
     </g>
    </g>
    <g id="xtick_15">
     <g id="line2d_38">
      <g>
       <use xlink:href="#mcde218c366" x="297.973348" y="458.728" style="stroke: #000000; stroke-width: 0.6"/>
      </g>
     </g>
    </g>
    <g id="xtick_16">
     <g id="line2d_39">
      <g>
       <use xlink:href="#mcde218c366" x="314.554442" y="458.728" style="stroke: #000000; stroke-width: 0.6"/>
      </g>
     </g>
    </g>
    <g id="xtick_17">
     <g id="line2d_40">
      <g>
       <use xlink:href="#mcde218c366" x="329.180004" y="458.728" style="stroke: #000000; stroke-width: 0.6"/>
      </g>
     </g>
    </g>
    <g id="xtick_18">
     <g id="line2d_41">
      <g>
       <use xlink:href="#mcde218c366" x="428.333705" y="458.728" style="stroke: #000000; stroke-width: 0.6"/>
      </g>
     </g>
    </g>
    <g id="xtick_19">
     <g id="line2d_42">
      <g>
       <use xlink:href="#mcde218c366" x="478.681831" y="458.728" style="stroke: #000000; stroke-width: 0.6"/>
      </g>
     </g>
    </g>
    <g id="xtick_20">
     <g id="line2d_43">
      <g>
       <use xlink:href="#mcde218c366" x="514.404395" y="458.728" style="stroke: #000000; stroke-width: 0.6"/>
      </g>
     </g>
    </g>
    <g id="xtick_21">
     <g id="line2d_44">
      <g>
       <use xlink:href="#mcde218c366" x="542.112968" y="458.728" style="stroke: #000000; stroke-width: 0.6"/>
      </g>
     </g>
    </g>
    <g id="xtick_22">
     <g id="line2d_45">
      <g>
       <use xlink:href="#mcde218c366" x="564.752521" y="458.728" style="stroke: #000000; stroke-width: 0.6"/>
      </g>
     </g>
    </g>
    <g id="xtick_23">
     <g id="line2d_46">
      <g>
       <use xlink:href="#mcde218c366" x="583.89399" y="458.728" style="stroke: #000000; stroke-width: 0.6"/>
      </g>
     </g>
    </g>
    <g id="xtick_24">
     <g id="line2d_47">
      <g>
       <use xlink:href="#mcde218c366" x="600.475084" y="458.728" style="stroke: #000000; stroke-width: 0.6"/>
      </g>
     </g>
    </g>
    <g id="xtick_25">
     <g id="line2d_48">
      <g>
       <use xlink:href="#mcde218c366" x="615.100647" y="458.728" style="stroke: #000000; stroke-width: 0.6"/>
      </g>
     </g>
    </g>
    <g id="text_20">
     <!-- frequency [arb.] -->
     <g transform="translate(301.797856 487.004563) scale(0.1 -0.1)">
      <defs>
       <path id="DejaVuSans-71" d="M 947 1747 
Q 947 1113 1208 752 
Q 1469 391 1925 391 
Q 2381 391 2643 752 
Q 2906 1113 2906 1747 
Q 2906 2381 2643 2742 
Q 2381 3103 1925 3103 
Q 1469 3103 1208 2742 
Q 947 2381 947 1747 
z
M 2906 525 
Q 2725 213 2448 61 
Q 2172 -91 1784 -91 
Q 1150 -91 751 415 
Q 353 922 353 1747 
Q 353 2572 751 3078 
Q 1150 3584 1784 3584 
Q 2172 3584 2448 3432 
Q 2725 3281 2906 2969 
L 2906 3500 
L 3481 3500 
L 3481 -1331 
L 2906 -1331 
L 2906 525 
z
" transform="scale(0.015625)"/>
      </defs>
      <use xlink:href="#DejaVuSans-66"/>
      <use xlink:href="#DejaVuSans-72" transform="translate(35.205078 0)"/>
      <use xlink:href="#DejaVuSans-65" transform="translate(74.068359 0)"/>
      <use xlink:href="#DejaVuSans-71" transform="translate(135.591797 0)"/>
      <use xlink:href="#DejaVuSans-75" transform="translate(199.068359 0)"/>
      <use xlink:href="#DejaVuSans-65" transform="translate(262.447266 0)"/>
      <use xlink:href="#DejaVuSans-6e" transform="translate(323.970703 0)"/>
      <use xlink:href="#DejaVuSans-63" transform="translate(387.349609 0)"/>
      <use xlink:href="#DejaVuSans-79" transform="translate(442.330078 0)"/>
      <use xlink:href="#DejaVuSans-20" transform="translate(501.509766 0)"/>
      <use xlink:href="#DejaVuSans-5b" transform="translate(533.296875 0)"/>
      <use xlink:href="#DejaVuSans-61" transform="translate(572.310547 0)"/>
      <use xlink:href="#DejaVuSans-72" transform="translate(633.589844 0)"/>
      <use xlink:href="#DejaVuSans-62" transform="translate(674.703125 0)"/>
      <use xlink:href="#DejaVuSans-2e" transform="translate(738.179688 0)"/>
      <use xlink:href="#DejaVuSans-5d" transform="translate(769.966797 0)"/>
     </g>
    </g>
   </g>
   <g id="matplotlib.axis_4">
    <g id="ytick_6">
     <g id="line2d_49">
      <path d="M 56.312054 443.114042 
L 628.183658 443.114042 
" clip-path="url(#p9c6fc93f88)" style="fill: none; stroke: #b0b0b0; stroke-opacity: 0.25; stroke-width: 0.8; stroke-linecap: square"/>
     </g>
     <g id="line2d_50">
      <g>
       <use xlink:href="#m8493fd6760" x="56.312054" y="443.114042" style="stroke: #000000; stroke-width: 0.8"/>
      </g>
     </g>
     <g id="text_21">
      <!-- $\mathdefault{10^{-9}}$ -->
      <g transform="translate(25.812054 446.913261) scale(0.1 -0.1)">
       <defs>
        <path id="DejaVuSans-39" d="M 703 97 
L 703 672 
Q 941 559 1184 500 
Q 1428 441 1663 441 
Q 2288 441 2617 861 
Q 2947 1281 2994 2138 
Q 2813 1869 2534 1725 
Q 2256 1581 1919 1581 
Q 1219 1581 811 2004 
Q 403 2428 403 3163 
Q 403 3881 828 4315 
Q 1253 4750 1959 4750 
Q 2769 4750 3195 4129 
Q 3622 3509 3622 2328 
Q 3622 1225 3098 567 
Q 2575 -91 1691 -91 
Q 1453 -91 1209 -44 
Q 966 3 703 97 
z
M 1959 2075 
Q 2384 2075 2632 2365 
Q 2881 2656 2881 3163 
Q 2881 3666 2632 3958 
Q 2384 4250 1959 4250 
Q 1534 4250 1286 3958 
Q 1038 3666 1038 3163 
Q 1038 2656 1286 2365 
Q 1534 2075 1959 2075 
z
" transform="scale(0.015625)"/>
       </defs>
       <use xlink:href="#DejaVuSans-31" transform="translate(0 0.765625)"/>
       <use xlink:href="#DejaVuSans-30" transform="translate(63.623047 0.765625)"/>
       <use xlink:href="#DejaVuSans-2212" transform="translate(128.203125 39.046875) scale(0.7)"/>
       <use xlink:href="#DejaVuSans-39" transform="translate(186.855469 39.046875) scale(0.7)"/>
      </g>
     </g>
    </g>
    <g id="ytick_7">
     <g id="line2d_51">
      <path d="M 56.312054 417.392737 
L 628.183658 417.392737 
" clip-path="url(#p9c6fc93f88)" style="fill: none; stroke: #b0b0b0; stroke-opacity: 0.25; stroke-width: 0.8; stroke-linecap: square"/>
     </g>
     <g id="line2d_52">
      <g>
       <use xlink:href="#m8493fd6760" x="56.312054" y="417.392737" style="stroke: #000000; stroke-width: 0.8"/>
      </g>
     </g>
     <g id="text_22">
      <!-- $\mathdefault{10^{-7}}$ -->
      <g transform="translate(25.812054 421.191955) scale(0.1 -0.1)">
       <defs>
        <path id="DejaVuSans-37" d="M 525 4666 
L 3525 4666 
L 3525 4397 
L 1831 0 
L 1172 0 
L 2766 4134 
L 525 4134 
L 525 4666 
z
" transform="scale(0.015625)"/>
       </defs>
       <use xlink:href="#DejaVuSans-31" transform="translate(0 0.684375)"/>
       <use xlink:href="#DejaVuSans-30" transform="translate(63.623047 0.684375)"/>
       <use xlink:href="#DejaVuSans-2212" transform="translate(128.203125 38.965625) scale(0.7)"/>
       <use xlink:href="#DejaVuSans-37" transform="translate(186.855469 38.965625) scale(0.7)"/>
      </g>
     </g>
    </g>
    <g id="ytick_8">
     <g id="line2d_53">
      <path d="M 56.312054 391.671431 
L 628.183658 391.671431 
" clip-path="url(#p9c6fc93f88)" style="fill: none; stroke: #b0b0b0; stroke-opacity: 0.25; stroke-width: 0.8; stroke-linecap: square"/>
     </g>
     <g id="line2d_54">
      <g>
       <use xlink:href="#m8493fd6760" x="56.312054" y="391.671431" style="stroke: #000000; stroke-width: 0.8"/>
      </g>
     </g>
     <g id="text_23">
      <!-- $\mathdefault{10^{-5}}$ -->
      <g transform="translate(25.812054 395.47065) scale(0.1 -0.1)">
       <use xlink:href="#DejaVuSans-31" transform="translate(0 0.684375)"/>
       <use xlink:href="#DejaVuSans-30" transform="translate(63.623047 0.684375)"/>
       <use xlink:href="#DejaVuSans-2212" transform="translate(128.203125 38.965625) scale(0.7)"/>
       <use xlink:href="#DejaVuSans-35" transform="translate(186.855469 38.965625) scale(0.7)"/>
      </g>
     </g>
    </g>
    <g id="ytick_9">
     <g id="line2d_55">
      <path d="M 56.312054 365.950126 
L 628.183658 365.950126 
" clip-path="url(#p9c6fc93f88)" style="fill: none; stroke: #b0b0b0; stroke-opacity: 0.25; stroke-width: 0.8; stroke-linecap: square"/>
     </g>
     <g id="line2d_56">
      <g>
       <use xlink:href="#m8493fd6760" x="56.312054" y="365.950126" style="stroke: #000000; stroke-width: 0.8"/>
      </g>
     </g>
     <g id="text_24">
      <!-- $\mathdefault{10^{-3}}$ -->
      <g transform="translate(25.812054 369.749345) scale(0.1 -0.1)">
       <use xlink:href="#DejaVuSans-31" transform="translate(0 0.765625)"/>
       <use xlink:href="#DejaVuSans-30" transform="translate(63.623047 0.765625)"/>
       <use xlink:href="#DejaVuSans-2212" transform="translate(128.203125 39.046875) scale(0.7)"/>
       <use xlink:href="#DejaVuSans-33" transform="translate(186.855469 39.046875) scale(0.7)"/>
      </g>
     </g>
    </g>
    <g id="ytick_10">
     <g id="line2d_57">
      <path d="M 56.312054 340.228821 
L 628.183658 340.228821 
" clip-path="url(#p9c6fc93f88)" style="fill: none; stroke: #b0b0b0; stroke-opacity: 0.25; stroke-width: 0.8; stroke-linecap: square"/>
     </g>
     <g id="line2d_58">
      <g>
       <use xlink:href="#m8493fd6760" x="56.312054" y="340.228821" style="stroke: #000000; stroke-width: 0.8"/>
      </g>
     </g>
     <g id="text_25">
      <!-- $\mathdefault{10^{-1}}$ -->
      <g transform="translate(25.812054 344.02804) scale(0.1 -0.1)">
       <use xlink:href="#DejaVuSans-31" transform="translate(0 0.684375)"/>
       <use xlink:href="#DejaVuSans-30" transform="translate(63.623047 0.684375)"/>
       <use xlink:href="#DejaVuSans-2212" transform="translate(128.203125 38.965625) scale(0.7)"/>
       <use xlink:href="#DejaVuSans-31" transform="translate(186.855469 38.965625) scale(0.7)"/>
      </g>
     </g>
    </g>
    <g id="ytick_11">
     <g id="line2d_59">
      <path d="M 56.312054 314.507516 
L 628.183658 314.507516 
" clip-path="url(#p9c6fc93f88)" style="fill: none; stroke: #b0b0b0; stroke-opacity: 0.25; stroke-width: 0.8; stroke-linecap: square"/>
     </g>
     <g id="line2d_60">
      <g>
       <use xlink:href="#m8493fd6760" x="56.312054" y="314.507516" style="stroke: #000000; stroke-width: 0.8"/>
      </g>
     </g>
     <g id="text_26">
      <!-- $\mathdefault{10^{1}}$ -->
      <g transform="translate(31.712054 318.306735) scale(0.1 -0.1)">
       <use xlink:href="#DejaVuSans-31" transform="translate(0 0.684375)"/>
       <use xlink:href="#DejaVuSans-30" transform="translate(63.623047 0.684375)"/>
       <use xlink:href="#DejaVuSans-31" transform="translate(128.203125 38.965625) scale(0.7)"/>
      </g>
     </g>
    </g>
    <g id="ytick_12">
     <g id="line2d_61">
      <path d="M 56.312054 288.786211 
L 628.183658 288.786211 
" clip-path="url(#p9c6fc93f88)" style="fill: none; stroke: #b0b0b0; stroke-opacity: 0.25; stroke-width: 0.8; stroke-linecap: square"/>
     </g>
     <g id="line2d_62">
      <g>
       <use xlink:href="#m8493fd6760" x="56.312054" y="288.786211" style="stroke: #000000; stroke-width: 0.8"/>
      </g>
     </g>
     <g id="text_27">
      <!-- $\mathdefault{10^{3}}$ -->
      <g transform="translate(31.712054 292.585429) scale(0.1 -0.1)">
       <use xlink:href="#DejaVuSans-31" transform="translate(0 0.765625)"/>
       <use xlink:href="#DejaVuSans-30" transform="translate(63.623047 0.765625)"/>
       <use xlink:href="#DejaVuSans-33" transform="translate(128.203125 39.046875) scale(0.7)"/>
      </g>
     </g>
    </g>
    <g id="text_28">
     <!-- |FFT(.)| -->
     <g transform="translate(19.454241 386.597344) rotate(-90) scale(0.1 -0.1)">
      <defs>
       <path id="DejaVuSans-46" d="M 628 4666 
L 3309 4666 
L 3309 4134 
L 1259 4134 
L 1259 2759 
L 3109 2759 
L 3109 2228 
L 1259 2228 
L 1259 0 
L 628 0 
L 628 4666 
z
" transform="scale(0.015625)"/>
       <path id="DejaVuSans-54" d="M -19 4666 
L 3928 4666 
L 3928 4134 
L 2272 4134 
L 2272 0 
L 1638 0 
L 1638 4134 
L -19 4134 
L -19 4666 
z
" transform="scale(0.015625)"/>
      </defs>
      <use xlink:href="#DejaVuSans-7c"/>
      <use xlink:href="#DejaVuSans-46" transform="translate(33.691406 0)"/>
      <use xlink:href="#DejaVuSans-46" transform="translate(91.210938 0)"/>
      <use xlink:href="#DejaVuSans-54" transform="translate(146.980469 0)"/>
      <use xlink:href="#DejaVuSans-28" transform="translate(208.064453 0)"/>
      <use xlink:href="#DejaVuSans-2e" transform="translate(247.078125 0)"/>
      <use xlink:href="#DejaVuSans-29" transform="translate(278.865234 0)"/>
      <use xlink:href="#DejaVuSans-7c" transform="translate(317.878906 0)"/>
     </g>
    </g>
   </g>
   <g id="line2d_63">
    <path d="M 56.312054 308.489496 
L 142.382744 331.575064 
L 192.730869 330.441374 
L 228.453433 328.885589 
L 256.162006 326.944406 
L 278.801559 324.593115 
L 297.943028 321.747072 
L 314.524123 318.230131 
L 329.149685 313.679724 
L 342.232696 307.205204 
L 354.067719 294.84938 
L 364.872249 287.467273 
L 374.811452 288.445982 
L 384.013718 299.412947 
L 392.580822 309.187304 
L 400.594812 315.018356 
L 408.1228 319.273021 
L 415.220375 322.643798 
L 421.934105 325.442689 
L 428.303386 327.839515 
L 434.361844 329.93761 
L 440.138409 331.80474 
L 445.658151 333.487823 
L 450.942938 335.020716 
L 456.011959 336.42866 
L 460.882142 337.730981 
L 465.5685 338.942807 
L 470.084407 340.076201 
L 474.441828 341.140938 
L 478.651511 342.145049 
L 482.723147 343.095215 
L 486.665502 343.99705 
L 490.486535 344.855322 
L 494.193489 345.674113 
L 497.792981 346.456945 
L 501.291064 347.206878 
L 504.693298 347.92659 
L 508.004794 348.618438 
L 511.230268 349.284504 
L 514.374075 349.926642 
L 517.44025 350.546508 
L 520.432533 351.145587 
L 523.354404 351.725216 
L 526.209098 352.286605 
L 528.999637 352.830852 
L 531.728841 353.358956 
L 534.399347 353.871828 
L 537.013628 354.370306 
L 539.574002 354.855154 
L 542.082648 355.327081 
L 544.541615 355.786737 
L 546.952832 356.234726 
L 549.318118 356.671606 
L 551.63919 357.097897 
L 553.917672 357.514081 
L 556.155097 357.920609 
L 558.35292 358.317902 
L 560.512518 358.706354 
L 562.635198 359.086332 
L 564.722201 359.458184 
L 566.774707 359.822234 
L 568.793837 360.17879 
L 570.780659 360.528139 
L 572.736192 360.870553 
L 574.661405 361.206291 
L 576.557224 361.535594 
L 578.424534 361.858694 
L 580.264179 362.175809 
L 582.076967 362.487145 
L 583.86367 362.7929 
L 585.62503 363.09326 
L 587.361754 363.388403 
L 589.074522 363.678499 
L 590.763987 363.963709 
L 592.430774 364.244187 
L 594.075484 364.52008 
L 595.698693 364.791528 
L 597.300958 365.058665 
L 598.88281 365.321619 
L 600.444765 365.580514 
L 601.987316 365.835467 
L 603.510939 366.086591 
L 605.016094 366.333994 
L 606.503223 366.577779 
L 607.972752 366.818047 
L 609.425093 367.054892 
L 610.860644 367.288407 
L 612.279788 367.51868 
L 613.682896 367.745796 
L 615.070327 367.969837 
L 616.442427 368.190881 
L 617.79953 368.409006 
L 619.141962 368.624283 
L 620.470037 368.836783 
L 621.784057 369.046574 
L 623.084318 369.253723 
L 624.371104 369.458292 
L 625.644692 369.660342 
L 626.90535 369.859933 
L 628.153338 370.057122 
L 629.388908 370.251964 
" clip-path="url(#p9c6fc93f88)" style="fill: none; stroke: #1f77b4; stroke-opacity: 0.6; stroke-width: 1.5; stroke-linecap: square"/>
   </g>
   <g id="line2d_64">
    <path d="M 56.312054 311.459399 
L 142.382744 323.852714 
L 192.730869 326.475305 
L 228.453433 329.248649 
L 256.162006 331.33846 
L 278.801559 331.311967 
L 297.943028 329.158217 
L 314.524123 325.837163 
L 329.149685 321.376488 
L 342.232696 314.946303 
L 354.067719 302.606474 
L 364.872249 295.226462 
L 374.811452 296.204388 
L 384.013718 307.174101 
L 392.580822 316.957473 
L 400.594812 322.804262 
L 408.1228 327.080677 
L 415.220375 330.478029 
L 421.934105 333.30703 
L 428.303386 335.7363 
L 434.361844 337.868135 
L 440.138409 339.769446 
L 445.658151 341.486469 
L 450.942938 343.052533 
L 456.011959 344.492484 
L 460.882142 345.825361 
L 465.5685 347.066089 
L 470.084407 348.2266 
L 474.441828 349.316595 
L 478.651511 350.344072 
L 482.723147 351.31571 
L 486.665502 352.23715 
L 490.486535 353.113204 
L 494.193489 353.948012 
L 497.792981 354.745162 
L 501.291064 355.50779 
L 504.693298 356.23865 
L 508.004794 356.940179 
L 511.230268 357.614543 
L 514.374075 358.263673 
L 517.44025 358.889305 
L 520.432533 359.493002 
L 523.354404 360.076174 
L 526.209098 360.640105 
L 528.999637 361.185959 
L 531.728841 361.714803 
L 534.399347 362.227611 
L 537.013628 362.725278 
L 539.574002 363.208627 
L 542.082648 363.678418 
L 544.541615 364.135352 
L 546.952832 364.580081 
L 549.318118 365.013206 
L 551.63919 365.435289 
L 553.917672 365.846852 
L 556.155097 366.248383 
L 558.35292 366.640335 
L 560.512518 367.023136 
L 562.635198 367.397183 
L 564.722201 367.762852 
L 566.774707 368.120493 
L 568.793837 368.470437 
L 570.780659 368.812996 
L 572.736192 369.148462 
L 574.661405 369.477113 
L 576.557224 369.79921 
L 578.424534 370.115 
L 580.264179 370.424717 
L 582.076967 370.728584 
L 583.86367 371.02681 
L 585.62503 371.319594 
L 587.361754 371.607127 
L 589.074522 371.889588 
L 590.763987 372.167148 
L 592.430774 372.439971 
L 594.075484 372.708212 
L 595.698693 372.972018 
L 597.300958 373.231531 
L 598.88281 373.486887 
L 600.444765 373.738213 
L 601.987316 373.985632 
L 603.510939 374.229263 
L 605.016094 374.469218 
L 606.503223 374.705604 
L 607.972752 374.938526 
L 609.425093 375.168082 
L 610.860644 375.394366 
L 612.279788 375.617471 
L 613.682896 375.837483 
L 615.070327 376.054487 
L 616.442427 376.268562 
L 617.79953 376.479788 
L 619.141962 376.688238 
L 620.470037 376.893984 
L 621.784057 377.097095 
L 623.084318 377.297639 
L 624.371104 377.495678 
L 625.644692 377.691275 
L 626.90535 377.884489 
L 628.153338 378.075378 
L 629.388908 378.263997 
" clip-path="url(#p9c6fc93f88)" style="fill: none; stroke: #ff7f0e; stroke-width: 1.5; stroke-linecap: square"/>
   </g>
   <g id="patch_9">
    <path d="M 56.312054 458.728 
L 56.312054 279.312 
" style="fill: none; stroke: #000000; stroke-width: 0.8; stroke-linejoin: miter; stroke-linecap: square"/>
   </g>
   <g id="patch_10">
    <path d="M 628.183658 458.728 
L 628.183658 279.312 
" style="fill: none; stroke: #000000; stroke-width: 0.8; stroke-linejoin: miter; stroke-linecap: square"/>
   </g>
   <g id="patch_11">
    <path d="M 56.312054 458.728 
L 628.183658 458.728 
" style="fill: none; stroke: #000000; stroke-width: 0.8; stroke-linejoin: miter; stroke-linecap: square"/>
   </g>
   <g id="patch_12">
    <path d="M 56.312054 279.312 
L 628.183658 279.312 
" style="fill: none; stroke: #000000; stroke-width: 0.8; stroke-linejoin: miter; stroke-linecap: square"/>
   </g>
   <g id="text_29">
    <!-- Output FFT peak ≈ 1.200 (arb.), magnitude ≈ 3.157e+02 -->
    <g transform="translate(169.370043 273.312) scale(0.12 -0.12)">
     <defs>
      <path id="DejaVuSans-4f" d="M 2522 4238 
Q 1834 4238 1429 3725 
Q 1025 3213 1025 2328 
Q 1025 1447 1429 934 
Q 1834 422 2522 422 
Q 3209 422 3611 934 
Q 4013 1447 4013 2328 
Q 4013 3213 3611 3725 
Q 3209 4238 2522 4238 
z
M 2522 4750 
Q 3503 4750 4090 4092 
Q 4678 3434 4678 2328 
Q 4678 1225 4090 567 
Q 3503 -91 2522 -91 
Q 1538 -91 948 565 
Q 359 1222 359 2328 
Q 359 3434 948 4092 
Q 1538 4750 2522 4750 
z
" transform="scale(0.015625)"/>
      <path id="DejaVuSans-6b" d="M 581 4863 
L 1159 4863 
L 1159 1991 
L 2875 3500 
L 3609 3500 
L 1753 1863 
L 3688 0 
L 2938 0 
L 1159 1709 
L 1159 0 
L 581 0 
L 581 4863 
z
" transform="scale(0.015625)"/>
      <path id="DejaVuSans-2248" d="M 4684 1947 
L 4684 1388 
Q 4356 1144 4076 1036 
Q 3797 928 3494 928 
Q 3150 928 2694 1113 
Q 2663 1125 2641 1134 
Q 2622 1141 2575 1159 
Q 2091 1350 1797 1350 
Q 1522 1350 1253 1231 
Q 984 1113 678 850 
L 678 1409 
Q 1006 1653 1286 1761 
Q 1566 1869 1869 1869 
Q 2213 1869 2672 1684 
Q 2706 1669 2722 1663 
Q 2741 1656 2788 1638 
Q 3272 1447 3566 1447 
Q 3834 1447 4098 1564 
Q 4363 1681 4684 1947 
z
M 4684 3163 
L 4684 2606 
Q 4356 2359 4076 2251 
Q 3797 2144 3494 2144 
Q 3150 2144 2694 2328 
Q 2663 2341 2641 2350 
Q 2622 2356 2575 2375 
Q 2091 2566 1797 2566 
Q 1522 2566 1253 2447 
Q 984 2328 678 2069 
L 678 2625 
Q 1006 2869 1286 2976 
Q 1566 3084 1869 3084 
Q 2213 3084 2672 2900 
Q 2703 2888 2719 2881 
Q 2741 2872 2788 2853 
Q 3272 2663 3566 2663 
Q 3834 2663 4098 2780 
Q 4363 2897 4684 3163 
z
" transform="scale(0.015625)"/>
      <path id="DejaVuSans-6d" d="M 3328 2828 
Q 3544 3216 3844 3400 
Q 4144 3584 4550 3584 
Q 5097 3584 5394 3201 
Q 5691 2819 5691 2113 
L 5691 0 
L 5113 0 
L 5113 2094 
Q 5113 2597 4934 2840 
Q 4756 3084 4391 3084 
Q 3944 3084 3684 2787 
Q 3425 2491 3425 1978 
L 3425 0 
L 2847 0 
L 2847 2094 
Q 2847 2600 2669 2842 
Q 2491 3084 2119 3084 
Q 1678 3084 1418 2786 
Q 1159 2488 1159 1978 
L 1159 0 
L 581 0 
L 581 3500 
L 1159 3500 
L 1159 2956 
Q 1356 3278 1631 3431 
Q 1906 3584 2284 3584 
Q 2666 3584 2933 3390 
Q 3200 3197 3328 2828 
z
" transform="scale(0.015625)"/>
      <path id="DejaVuSans-67" d="M 2906 1791 
Q 2906 2416 2648 2759 
Q 2391 3103 1925 3103 
Q 1463 3103 1205 2759 
Q 947 2416 947 1791 
Q 947 1169 1205 825 
Q 1463 481 1925 481 
Q 2391 481 2648 825 
Q 2906 1169 2906 1791 
z
M 3481 434 
Q 3481 -459 3084 -895 
Q 2688 -1331 1869 -1331 
Q 1566 -1331 1297 -1286 
Q 1028 -1241 775 -1147 
L 775 -588 
Q 1028 -725 1275 -790 
Q 1522 -856 1778 -856 
Q 2344 -856 2625 -561 
Q 2906 -266 2906 331 
L 2906 616 
Q 2728 306 2450 153 
Q 2172 0 1784 0 
Q 1141 0 747 490 
Q 353 981 353 1791 
Q 353 2603 747 3093 
Q 1141 3584 1784 3584 
Q 2172 3584 2450 3431 
Q 2728 3278 2906 2969 
L 2906 3500 
L 3481 3500 
L 3481 434 
z
" transform="scale(0.015625)"/>
      <path id="DejaVuSans-2b" d="M 2944 4013 
L 2944 2272 
L 4684 2272 
L 4684 1741 
L 2944 1741 
L 2944 0 
L 2419 0 
L 2419 1741 
L 678 1741 
L 678 2272 
L 2419 2272 
L 2419 4013 
L 2944 4013 
z
" transform="scale(0.015625)"/>
     </defs>
     <use xlink:href="#DejaVuSans-4f"/>
     <use xlink:href="#DejaVuSans-75" transform="translate(78.710938 0)"/>
     <use xlink:href="#DejaVuSans-74" transform="translate(142.089844 0)"/>
     <use xlink:href="#DejaVuSans-70" transform="translate(181.298828 0)"/>
     <use xlink:href="#DejaVuSans-75" transform="translate(244.775391 0)"/>
     <use xlink:href="#DejaVuSans-74" transform="translate(308.154297 0)"/>
     <use xlink:href="#DejaVuSans-20" transform="translate(347.363281 0)"/>
     <use xlink:href="#DejaVuSans-46" transform="translate(379.150391 0)"/>
     <use xlink:href="#DejaVuSans-46" transform="translate(436.669922 0)"/>
     <use xlink:href="#DejaVuSans-54" transform="translate(492.439453 0)"/>
     <use xlink:href="#DejaVuSans-20" transform="translate(553.523438 0)"/>
     <use xlink:href="#DejaVuSans-70" transform="translate(585.310547 0)"/>
     <use xlink:href="#DejaVuSans-65" transform="translate(648.787109 0)"/>
     <use xlink:href="#DejaVuSans-61" transform="translate(710.310547 0)"/>
     <use xlink:href="#DejaVuSans-6b" transform="translate(771.589844 0)"/>
     <use xlink:href="#DejaVuSans-20" transform="translate(829.5 0)"/>
     <use xlink:href="#DejaVuSans-2248" transform="translate(861.287109 0)"/>
     <use xlink:href="#DejaVuSans-20" transform="translate(945.076172 0)"/>
     <use xlink:href="#DejaVuSans-31" transform="translate(976.863281 0)"/>
     <use xlink:href="#DejaVuSans-2e" transform="translate(1040.486328 0)"/>
     <use xlink:href="#DejaVuSans-32" transform="translate(1072.273438 0)"/>
     <use xlink:href="#DejaVuSans-30" transform="translate(1135.896484 0)"/>
     <use xlink:href="#DejaVuSans-30" transform="translate(1199.519531 0)"/>
     <use xlink:href="#DejaVuSans-20" transform="translate(1263.142578 0)"/>
     <use xlink:href="#DejaVuSans-28" transform="translate(1294.929688 0)"/>
     <use xlink:href="#DejaVuSans-61" transform="translate(1333.943359 0)"/>
     <use xlink:href="#DejaVuSans-72" transform="translate(1395.222656 0)"/>
     <use xlink:href="#DejaVuSans-62" transform="translate(1436.335938 0)"/>
     <use xlink:href="#DejaVuSans-2e" transform="translate(1499.8125 0)"/>
     <use xlink:href="#DejaVuSans-29" transform="translate(1531.599609 0)"/>
     <use xlink:href="#DejaVuSans-2c" transform="translate(1570.613281 0)"/>
     <use xlink:href="#DejaVuSans-20" transform="translate(1602.400391 0)"/>
     <use xlink:href="#DejaVuSans-6d" transform="translate(1634.1875 0)"/>
     <use xlink:href="#DejaVuSans-61" transform="translate(1731.599609 0)"/>
     <use xlink:href="#DejaVuSans-67" transform="translate(1792.878906 0)"/>
     <use xlink:href="#DejaVuSans-6e" transform="translate(1856.355469 0)"/>
     <use xlink:href="#DejaVuSans-69" transform="translate(1919.734375 0)"/>
     <use xlink:href="#DejaVuSans-74" transform="translate(1947.517578 0)"/>
     <use xlink:href="#DejaVuSans-75" transform="translate(1986.726562 0)"/>
     <use xlink:href="#DejaVuSans-64" transform="translate(2050.105469 0)"/>
     <use xlink:href="#DejaVuSans-65" transform="translate(2113.582031 0)"/>
     <use xlink:href="#DejaVuSans-20" transform="translate(2175.105469 0)"/>
     <use xlink:href="#DejaVuSans-2248" transform="translate(2206.892578 0)"/>
     <use xlink:href="#DejaVuSans-20" transform="translate(2290.681641 0)"/>
     <use xlink:href="#DejaVuSans-33" transform="translate(2322.46875 0)"/>
     <use xlink:href="#DejaVuSans-2e" transform="translate(2386.091797 0)"/>
     <use xlink:href="#DejaVuSans-31" transform="translate(2417.878906 0)"/>
     <use xlink:href="#DejaVuSans-35" transform="translate(2481.501953 0)"/>
     <use xlink:href="#DejaVuSans-37" transform="translate(2545.125 0)"/>
     <use xlink:href="#DejaVuSans-65" transform="translate(2608.748047 0)"/>
     <use xlink:href="#DejaVuSans-2b" transform="translate(2670.271484 0)"/>
     <use xlink:href="#DejaVuSans-30" transform="translate(2754.060547 0)"/>
     <use xlink:href="#DejaVuSans-32" transform="translate(2817.683594 0)"/>
    </g>
   </g>
   <g id="legend_2">
    <g id="patch_13">
     <path d="M 535.586783 316.66825 
L 621.183658 316.66825 
Q 623.183658 316.66825 623.183658 314.66825 
L 623.183658 286.312 
Q 623.183658 284.312 621.183658 284.312 
L 535.586783 284.312 
Q 533.586783 284.312 533.586783 286.312 
L 533.586783 314.66825 
Q 533.586783 316.66825 535.586783 316.66825 
z
" style="fill: #ffffff; opacity: 0.8; stroke: #cccccc; stroke-linejoin: miter"/>
    </g>
    <g id="line2d_65">
     <path d="M 537.586783 292.410438 
L 547.586783 292.410438 
L 557.586783 292.410438 
" style="fill: none; stroke: #1f77b4; stroke-opacity: 0.6; stroke-width: 1.5; stroke-linecap: square"/>
    </g>
    <g id="text_30">
     <!-- input FFT -->
     <g transform="translate(565.586783 295.910438) scale(0.1 -0.1)">
      <use xlink:href="#DejaVuSans-69"/>
      <use xlink:href="#DejaVuSans-6e" transform="translate(27.783203 0)"/>
      <use xlink:href="#DejaVuSans-70" transform="translate(91.162109 0)"/>
      <use xlink:href="#DejaVuSans-75" transform="translate(154.638672 0)"/>
      <use xlink:href="#DejaVuSans-74" transform="translate(218.017578 0)"/>
      <use xlink:href="#DejaVuSans-20" transform="translate(257.226562 0)"/>
      <use xlink:href="#DejaVuSans-46" transform="translate(289.013672 0)"/>
      <use xlink:href="#DejaVuSans-46" transform="translate(346.533203 0)"/>
      <use xlink:href="#DejaVuSans-54" transform="translate(402.302734 0)"/>
     </g>
    </g>
    <g id="line2d_66">
     <path d="M 537.586783 307.088562 
L 547.586783 307.088562 
L 557.586783 307.088562 
" style="fill: none; stroke: #ff7f0e; stroke-width: 1.5; stroke-linecap: square"/>
    </g>
    <g id="text_31">
     <!-- output FFT -->
     <g transform="translate(565.586783 310.588562) scale(0.1 -0.1)">
      <use xlink:href="#DejaVuSans-6f"/>
      <use xlink:href="#DejaVuSans-75" transform="translate(61.181641 0)"/>
      <use xlink:href="#DejaVuSans-74" transform="translate(124.560547 0)"/>
      <use xlink:href="#DejaVuSans-70" transform="translate(163.769531 0)"/>
      <use xlink:href="#DejaVuSans-75" transform="translate(227.246094 0)"/>
      <use xlink:href="#DejaVuSans-74" transform="translate(290.625 0)"/>
      <use xlink:href="#DejaVuSans-20" transform="translate(329.833984 0)"/>
      <use xlink:href="#DejaVuSans-46" transform="translate(361.621094 0)"/>
      <use xlink:href="#DejaVuSans-46" transform="translate(419.140625 0)"/>
      <use xlink:href="#DejaVuSans-54" transform="translate(474.910156 0)"/>
     </g>
    </g>
   </g>
  </g>
 </g>
 <defs>
  <clipPath id="p63747da4f8">
   <rect x="56.312054" y="41.856" width="571.871604" height="179.416"/>
  </clipPath>
  <clipPath id="p9c6fc93f88">
   <rect x="56.312054" y="279.312" width="571.871604" height="179.416"/>
  </clipPath>
 </defs>
</svg>
